<svg xmlns="http://www.w3.org/2000/svg" viewBox="0 0 187.87 129.8"><defs><style>.cls-1{fill:#fff;}</style></defs><g id="Layer_2" data-name="Layer 2"><g id="Layer_1-2" data-name="Layer 1"><g id="XMPp2J.tif"><path d="M20.86,125.3a4.11,4.11,0,0,0,3.75-1.81,132.6,132.6,0,0,0,24-49.64C51.18,63.55,53,53.07,55.25,42.7c2-9.22,4.6-18.28,10.64-25.79C74.19,6.6,84.69-.14,98.3,0c16.36.18,28.16,8.39,35.82,22.58,4.13,7.64,5.43,16.16,6.48,24.66,2,15.9,3.66,31.84,9.41,47A126.16,126.16,0,0,0,166,123.46a4,4,0,0,0,3.71,1.86M35.23,125.1h120.5c-.32-.58-.48-.94-.7-1.26a124.66,124.66,0,0,1-19.9-49.53c-1.79-10.47-2.91-21-4.51-31.55-1.05-6.93-2.78-13.66-6.74-19.62C116.93,12.7,103.79,7,92.3,9.94c-11.25,2.9-19.12,10-23.7,20.69C64.6,40,63.19,50.1,61.31,60,58,77.67,53,94.74,44.17,110.48,41.37,115.39,38.23,120.1,35.23,125.1Z"/><path class="cls-1" d="M35.23,125.1c3.07-5,6.18-9.71,8.94-14.62C53,94.74,57.94,77.67,61.23,60c1.88-9.94,3.25-20,7.29-29.41C73.1,20,81,12.84,92.22,9.94c11.49-3,24.63,2.76,31.58,13.2,4,6,5.69,12.69,6.74,19.62,1.6,10.5,2.72,21.08,4.51,31.55A124.66,124.66,0,0,0,155,123.84c.22.32.38.68.7,1.26Z"/></g><rect y="120.8" width="187.87" height="9"/></g></g></svg>