<svg xmlns="http://www.w3.org/2000/svg" viewBox="0 0 385 525"><g id="Layer_2" data-name="Layer 2"><g id="Layer_1-2" data-name="Layer 1"><path d="M192.5,455a8.75,8.75,0,0,1-8.75-8.75v-87.5a8.75,8.75,0,0,1,17.5,0v87.5A8.76,8.76,0,0,1,192.5,455Z"/><path d="M245,455a8.75,8.75,0,0,1-8.75-8.75v-87.5a8.75,8.75,0,0,1,17.5,0v87.5A8.76,8.76,0,0,1,245,455Z"/><path d="M140,455a8.75,8.75,0,0,1-8.75-8.75v-87.5a8.75,8.75,0,0,1,17.5,0v87.5A8.76,8.76,0,0,1,140,455Z"/><path d="M372.14,187.77a43.58,43.58,0,0,0-28.79-12.69A41.93,41.93,0,0,0,315,184.62v-.87a43.62,43.62,0,0,0-78.75-26,44.65,44.65,0,0,0-4.11-5A43.78,43.78,0,0,0,201.25,140,43,43,0,0,0,175,149V43.75a43.75,43.75,0,1,0-87.5,0v169.4a78.44,78.44,0,0,0-61.25-29.4A26.32,26.32,0,0,0,0,210V358.75A166.41,166.41,0,0,0,166.25,525h52.5A166.41,166.41,0,0,0,385,358.75v-140a43.88,43.88,0,0,0-12.87-31Zm-4.64,171A149,149,0,0,1,218.75,507.5h-52.5A149,149,0,0,1,17.5,358.75V210a8.75,8.75,0,0,1,8.75-8.75A61.32,61.32,0,0,1,87.5,262.5v35a8.75,8.75,0,0,0,17.5,0V43.75a26.25,26.25,0,0,1,52.5,0v192.5a8.75,8.75,0,0,0,17.5,0v-52.5a26.25,26.25,0,0,1,52.5,0v52.5a8.75,8.75,0,0,0,17.5,0v-52.5a26.25,26.25,0,0,1,52.5,0v52.5a8.75,8.75,0,0,0,17.5,0V220.76a29.37,29.37,0,0,1,9.1-21.08,24.92,24.92,0,0,1,18.38-7.18,26.93,26.93,0,0,1,17.32,7.61,26.33,26.33,0,0,1,7.7,18.64Z"/></g></g></svg>