<svg xmlns="http://www.w3.org/2000/svg" viewBox="0 0 157.03 156.92"><g id="Layer_2" data-name="Layer 2"><g id="Layer_1-2" data-name="Layer 1"><path d="M94.41,126.85h-.94l-3.44,0V79c0-5.94-3.36-10.31-9-11.69a18.4,18.4,0,0,0-4-.35H35.89L30.2,67l-.08-3.4C29.42,34.52,52.26,2,90.36.09a63.39,63.39,0,0,1,66.59,60,64,64,0,0,1,0,7.06,63.26,63.26,0,0,1-62.51,59.72ZM77.57,60a24.69,24.69,0,0,1,5,.51l.11,0C91.51,62.64,97,69.73,97,79v40.78a56.32,56.32,0,0,0,52.9-53.07,57.38,57.38,0,0,0,0-6.29A56.38,56.38,0,0,0,90.72,7.08C58.3,8.71,38.31,35.15,37.16,60H77.57Z"/><path d="M68,156.92h0A68.29,68.29,0,0,1,1.52,102.5,83.24,83.24,0,0,1,.34,92.9C.25,91.8.16,90.69.06,89.6a8.52,8.52,0,0,1,2.13-6.78A9.29,9.29,0,0,1,9.41,80c2.74.06,5.54,0,8.24,0l4.2,0H67.63c4.09,0,6.92,1.55,8.39,4.62A10.49,10.49,0,0,1,77,89v10.7c0,2.16,0,4.55,0,8.88v39.37a8.44,8.44,0,0,1-9,9Zm-58.78-70a2.48,2.48,0,0,0-1.84.61A1.63,1.63,0,0,0,7,88.88c.11,1.17.21,2.31.3,3.45a74.42,74.42,0,0,0,1.06,8.76A61.6,61.6,0,0,0,68,149.92a2.4,2.4,0,0,0,1.63-.4,2.43,2.43,0,0,0,.4-1.6V108.55c0-4.33,0-6.73,0-8.89V89a3.31,3.31,0,0,0-.32-1.42c-.11-.23-.29-.61-2.06-.61H17.7c-2.75,0-5.6,0-8.43,0Z"/></g></g></svg>