<svg xmlns="http://www.w3.org/2000/svg" viewBox="0 0 139.87 142.74"><defs><style>.cls-1{fill:#fff;}.cls-2{fill:#231f20;}.cls-3{fill:#bcbeca;}.cls-4{fill:#0c3556;}</style></defs><g id="Layer_2" data-name="Layer 2"><g id="Layer_1-2" data-name="Layer 1"><path class="cls-1" d="M109.09,88.25h-2.28l-32.21.84c-2.14.06-3,.85-3,2.9v47.46c0,2,1,2.94,3,2.93q31.2-.1,62.38-.26c2.06,0,2.89-.86,2.89-2.94V75.85c0-2.13-.88-3-3-3H112.09c-2.18,0-3,.84-3,3ZM47.16,28.87V3.15c0-2.32-.77-3.13-3-3.13H3C1,0,.05.86.06,2.79Q.17,34,.31,65.29c0,2.11.79,2.81,3,2.86H67.09c2.55,0,3.29-.61,3.3-2.82V31.67c0-2-.83-2.78-2.85-2.78H47.16Zm5.14-24h82.51v63h4.75V3.31c0-2.58-.73-3.29-3.36-3.29H52.3Zm-47.16,133v-66H.35v67.3c0,2.87.71,3.57,3.6,3.57H66.61V138Z"/><path class="cls-2" d="M39.44,5.06v-5H136.2c2.63,0,3.36.74,3.36,3.41V83.72h-4.75V5.06Z"/><path class="cls-2" d="M5.14,137.9H76.25v4.79H4c-2.89,0-3.6-.7-3.6-3.57V65.42H5.14Z"/><path class="cls-3" d="M76.54,93.89c.63,0,1.15-.09,1.67-.1l31.91-.71c2.44,0,2.22-.77,2.33-3.28.14-3.49.2-7,.3-10.47,0-.53,1.1-1,1.15-1.63h21v60H76.54Z"/><path class="cls-3" d="M65.51,33.67V63.41H6.66c-1.47,0-1.78-.5-1.78-1.84V5.48A2.12,2.12,0,0,1,5,4.89H42.41V30.45c0,2.38.79,3.18,3.14,3.18h20Z"/><path class="cls-4" d="M108.91,88.32V75.83c0-2.15.86-3,3-3h24.58c2.14,0,3,.88,3,3v63.62c0,2.09-.82,3-2.88,3q-31,.15-62.09.25c-2,0-3-.91-3-2.94V92.09c0-2.07.82-2.85,3-2.91C85.27,88.87,107.8,88.32,108.91,88.32Zm-32.4,5.59v43.8h58.14v-60H113.71c0,.58-.13,1.11-.15,1.63-.1,3.49-.16,7-.3,10.46-.1,2.52-.88,3.23-3.31,3.29l-31.76.7-1.68.12Z"/><path class="cls-4" d="M47.16,28.87H67.5c2,0,2.84.78,2.85,2.78V65.31c0,2.21-.75,2.82-3.3,2.82H3.25c-2.16,0-2.94-.75-3-2.86Q.1,34,0,2.77C0,.84.91,0,2.9,0H44.1c2.25,0,3,.81,3,3.13V26.85Zm18.35,4.8h-20c-2.35,0-3.14-.8-3.14-3.18V4.93H4.91c0,.28-.07.44-.07.59V61.61c0,1.34.31,1.84,1.78,1.84q28.61-.08,57.22,0h1.63Z"/></g></g></svg>