<?xml version="1.0" encoding="UTF-8"?>
<svg width="14px" height="18px" viewBox="0 0 14 18" version="1.1" xmlns="http://www.w3.org/2000/svg" xmlns:xlink="http://www.w3.org/1999/xlink">
    <!-- Generator: Sketch 58 (84663) - https://sketch.com -->
    <title>Group 10</title>
    <desc>Created with Sketch.</desc>
    <defs>
        <polygon id="path-1" points="0.0133467716 0.01940625 1.67268861 0.01940625 1.67268861 3.35104901 0.0133467716 3.35104901"></polygon>
    </defs>
    <g id="Page-1" stroke="none" stroke-width="1" fill="none" fill-rule="evenodd">
        <g id="Group-7" transform="translate(-193.000000, -75.000000)">
            <g id="Group-10" transform="translate(193.000000, 75.000000)">
                <path d="M10.4877241,18 C10.551549,18 10.6153738,17.9841589 10.6791987,17.9683177 C10.9185602,17.8733794 11.0461735,17.5885643 10.9344982,17.3512365 L9.45055157,13.8227126 L12.7056204,13.8227126 C13.0247448,13.8227126 13.3278947,13.6328359 13.4396065,13.3322159 C13.5672562,13.0315597 13.4874934,12.6992936 13.2481318,12.4619658 L6.40282245,5.84774663 C6.17943537,5.62622382 5.82839854,5.56293158 5.54118659,5.68951605 C5.23803665,5.81610052 5.0625,6.10091556 5.0625,6.41737673 L5.0625,15.9430386 C5.0625,16.2753047 5.25397464,16.5601198 5.57309903,16.6867043 C5.66883634,16.7183504 5.76457366,16.7499965 5.86031098,16.7499965 C6.08369805,16.7499965 6.29111067,16.6550581 6.43473489,16.4968276 L8.5888063,14.2183072 L10.0567785,17.7310261 C10.1365778,17.8892567 10.312078,18 10.4875782,18 L10.4877241,18 Z" id="Fill-1" fill="#000000"></path>
                <g id="Group-5" transform="translate(3.375000, 0.000000)">
                    <mask id="mask-2" fill="white">
                        <use xlink:href="#path-1"></use>
                    </mask>
                    <g id="Clip-4"></g>
                    <path d="M0.856931604,3.04902486 C0.926596698,3.25037429 1.07980896,3.35104901 1.24696698,3.35104901 C1.30268632,3.35104901 1.35840566,3.33425071 1.414125,3.31749077 C1.6230566,3.21681605 1.73449528,2.9147919 1.63700236,2.66312429 L0.815158019,0.330845881 C0.731579009,0.0791399148 0.480841981,-0.0550546875 0.271910377,0.0623799716 C0.0629787736,0.163054687 -0.0484599057,0.465078835 0.0490330189,0.716746449 L0.856931604,3.04902486 Z" id="Fill-3" fill="#000000" mask="url(#mask-2)"></path>
                </g>
                <path d="M0.354115669,4.32589173 L2.72266691,5.04650508 C2.77233827,5.0625 2.82204748,5.0625 2.87171883,5.0625 C3.08706232,5.0625 3.28586132,4.93439421 3.35211503,4.72624061 C3.43491324,4.47002904 3.28586132,4.19778594 3.02084647,4.11773813 L0.652295228,3.39712478 C0.387280384,3.31707696 0.105683182,3.46117767 0.0228849725,3.71738924 C-0.0599132368,3.97360082 0.0891386836,4.24584391 0.354153528,4.32589173 L0.354115669,4.32589173 Z" id="Fill-6" fill="#000000"></path>
                <path d="M7.02249055,3.33119782 C7.09154126,3.3604104 7.17787437,3.375 7.26416803,3.375 C7.45407722,3.375 7.626704,3.28739565 7.7302406,3.14133276 L8.93862805,1.19867958 C9.07672947,0.97956855 8.9731534,0.716621956 8.71423297,0.61442801 C8.45527307,0.497577695 8.14454487,0.585215431 8.02372586,0.804293078 L6.81533841,2.74694625 C6.67723699,2.9660239 6.76353065,3.22897049 7.02249055,3.33119782 Z" id="Fill-8" fill="#000000"></path>
            </g>
        </g>
    </g>
</svg>