<svg xmlns="http://www.w3.org/2000/svg" xmlns:xlink="http://www.w3.org/1999/xlink" viewBox="0 0 151.87 98.06"><defs><style>.cls-1{fill:none;}.cls-2{clip-path:url(#clip-path);}.cls-3{clip-path:url(#clip-path-2);}.cls-4{clip-path:url(#clip-path-3);}.cls-5{clip-path:url(#clip-path-4);}</style><clipPath id="clip-path" transform="translate(5.98 5.98)"><rect class="cls-1" width="71.75" height="71.75"/></clipPath><clipPath id="clip-path-2" transform="translate(5.98 5.98)"><polygon class="cls-1" points="38.86 59.8 38.86 23.41 55.58 40.12 59.79 35.88 35.88 11.96 11.96 35.88 16.17 40.09 32.89 23.41 32.89 59.8 38.86 59.8"/></clipPath><clipPath id="clip-path-3" transform="translate(5.98 5.98)"><rect class="cls-1" x="68.16" y="14.35" width="71.75" height="71.75"/></clipPath><clipPath id="clip-path-4" transform="translate(5.98 5.98)"><polygon class="cls-1" points="127.95 50.23 123.74 46.01 107.03 62.7 107.03 26.31 101.05 26.31 101.05 62.7 84.34 46.01 80.12 50.23 104.04 74.15 127.95 50.23"/></clipPath></defs><g id="Layer_2" data-name="Layer 2"><g id="Layer_1-2" data-name="Layer 1"><g class="cls-2"><g class="cls-3"><rect width="83.71" height="83.71"/></g></g><g class="cls-4"><g class="cls-5"><rect x="68.16" y="14.35" width="83.71" height="83.71"/></g></g><rect x="19.62" y="73.44" width="44.46" height="5"/><rect x="87.99" y="21.42" width="44.46" height="5"/></g></g></svg>