<?xml version="1.0" encoding="utf-8"?>
<!-- Generator: Adobe Illustrator 23.0.1, SVG Export Plug-In . SVG Version: 6.00 Build 0)  -->
<svg version="1.1" id="Layer_1" xmlns="http://www.w3.org/2000/svg" xmlns:xlink="http://www.w3.org/1999/xlink" x="0px" y="0px"
	 viewBox="0 0 2154.7 2297.4" style="enable-background:new 0 0 2154.7 2297.4;" xml:space="preserve">
<style type="text/css">
	.st0{fill:#1C507F;}
	.st1{font-family:'Arial-BoldMT';}
	.st2{font-size:580.24px;}
	.st3{fill:none;}
	.st4{fill:#FFFFFF;}
	.st5{fill:#CCCCCC;}
	.st6{clip-path:url(#SVGID_2_);}
	.st7{clip-path:url(#SVGID_4_);fill:#FFFFFF;}
	.st8{fill:#19437F;}
	.st9{font-family:'SourceSansPro-SemiBold';}
	.st10{font-size:397.5994px;}
</style>
<text transform="matrix(1 0 0 1 584.94 1817.13)" class="st0 st1 st2">40%</text>
<rect x="315.3" class="st3" width="1569.7" height="1569.7"/>
<path class="st4" d="M1077.4,876.7c106.6,0,200.8,25.5,277.3,58.9c70.6,31.4,115.1,102,115.1,178.6v106H684.9v-105.3
	c0-77.2,44.5-147.8,115.1-178.6C876.6,902.2,970.8,876.7,1077.4,876.7z M554.1,893c72,0,130.8-58.9,130.8-130.8
	S626,631.4,554.1,631.4s-130.8,58.9-130.8,130.8S482.2,893,554.1,893z M628,965c-24.2-3.9-48.4-6.5-73.9-6.5
	c-62.6,0-124.5,12.9-181.8,37.9c-48.4,20.7-79.8,68.3-79.8,121v102.7h294.3v-105.3C586.8,1060.5,601.9,1009.5,628,965z M1600.6,893
	c71.9,0,130.8-58.9,130.8-130.8s-58.9-130.8-130.8-130.8s-130.8,58.9-130.8,130.8S1528.7,893,1600.6,893L1600.6,893z M1862.2,1117.4
	c0-52.7-31.4-100.3-79.8-121c-57.3-25-119.2-37.9-181.8-37.9c-25.5,0-49.7,2.6-73.9,6.5c26.2,44.5,41.2,95.5,41.2,149.8v105.3h294.3
	L1862.2,1117.4z M1077.4,435.2c108.4,0,196.2,87.9,196.2,196.2s-87.9,196.2-196.2,196.2c-108.4,0-196.2-87.9-196.2-196.2l0,0
	c-0.1-108.2,87.5-196.1,195.8-196.2C1077.1,435.2,1077.2,435.2,1077.4,435.2z"/>
<circle class="st5" cx="1077.3" cy="1223.6" r="1073.2"/>
<g>
	<defs>
		<path id="SVGID_1_" d="M1095.8,602.8c102.8,0,185.8,83,185.8,185.8s-83,185.8-185.8,185.8S910,891.4,910,788.6
			S993,602.8,1095.8,602.8z M1838.9,1248.7c0-50.2-29.7-94.8-75.6-114.6c-52.6-22.9-110.9-35.9-172.2-35.9c-24.2,0-47.1,2.5-70,6.2
			c24.8,42.1,39,90.4,39,141.8v99.7h278.7V1248.7z M1591.2,1036.3c68.1,0,123.9-55.7,123.9-123.9s-55.7-123.9-123.9-123.9
			s-123.9,55.7-123.9,123.9S1523.1,1036.3,1591.2,1036.3z M670.3,1104.4c-22.9-3.7-45.8-6.2-70-6.2c-61.3,0-119.5,13-172.2,35.9
			c-45.8,19.8-75.6,64.4-75.6,114.6v97.2h278.7v-99.7C631.3,1194.8,645.5,1146.5,670.3,1104.4z M600.3,1036.3
			c68.1,0,123.9-55.7,123.9-123.9s-55.7-123.9-123.9-123.9s-123.9,55.7-123.9,123.9S532.2,1036.3,600.3,1036.3z M1095.8,1020.8
			c100.9,0,190.1,24.2,262.6,55.7c66.9,29.7,109,96.6,109,169.1v100.3H724.2v-99.7c0-73.1,42.1-140,109-169.1
			C905.6,1044.9,994.8,1020.8,1095.8,1020.8z"/>
	</defs>
	<use xlink:href="#SVGID_1_"  style="overflow:visible;fill-rule:evenodd;clip-rule:evenodd;fill:#FFFFFF;"/>
	<clipPath id="SVGID_2_">
		<use xlink:href="#SVGID_1_"  style="overflow:visible;"/>
	</clipPath>
	<g class="st6">
		<defs>
			<rect id="SVGID_3_" x="352.6" y="231.2" width="1486.3" height="1486.3"/>
		</defs>
		<use xlink:href="#SVGID_3_"  style="overflow:visible;fill:#FFFFFF;"/>
		<clipPath id="SVGID_4_">
			<use xlink:href="#SVGID_3_"  style="overflow:visible;"/>
		</clipPath>
		<rect x="43" y="293.1" class="st7" width="2105.6" height="1362.4"/>
	</g>
</g>
<text transform="matrix(1 0 0 1 724.0376 1727.6064)" class="st8 st9 st10">40%</text>
</svg>
