<svg xmlns="http://www.w3.org/2000/svg" width="2155" height="2155" viewBox="0 0 2155 2154.71"><defs><style>.a{fill:#c1c1c1;}.b{fill:#fff;}.c,.d{fill:#112f4e;}.d{opacity:0.5;}</style></defs><circle class="a" cx="1077.36" cy="1077.36" r="1077.36"/><path class="b" d="M1987.44,669c-1.09,0-3.39,2-5,4.33-3.16,4.06-16.68,17.91-21.42,16.68-2.74-2.55-14.09,11.92-16.68,11.52-1.49,0-3.52,3.26-5.83,9.63-5.41,17-9.19,6.25-14.91,14.91-.68,2-1.76,2.58-3.93,2-4.61-1.09-9.22,4.2-8.14,9.49.85,8.31-9.92,35.29-5,40.13,1.49,4.47,1.35,6.1-1.09,12.47-6.08,13.65,5.1,4.94,10,12.47,3.48,7,14.34,12.92,15.59,5.56a11.38,11.38,0,0,0-1.36-5c-1.22-1.9,1.76-6.78,4.07-6.78,1.76,0,5.42,9.62,5.42,14.23,0,4.07-.54,4.88-3.66,5.56-4.09.11-7.16,6.06-10.44,3.39-4.58-4.64-13,7.25-16.13,12.61-3.23-4.3-10.43-11.82-10.44-1.49-.31,16.77-41.43,14.78-53.15,32.4-7.72,7.73-9.35,10.58-6.37,10.58,4.71.88,35.16-21.4,41.89-15.46-1.62,8.8-34.38,25-43.38,27.66-4-.4-10.29,4.93-4.34,5.42,4.88,0,5.7,2.85,5.7,18,1.69,16.19-7,31.79-14.78,42.3-3.12,2.71-3.12,2.71-5.42-.13-1.23-1.63-4.48-3.94-7.05-5.29-3.15-.07-14.85-15.66-15.19-10.44-.81,3.39,11.52,22.91,15.73,24.81,20.31,12,1.43,52.85-6.51,69.69-.49-4.79-.8-13.35.54-17.36.86-3.71,4.44-13.6-2.57-11.12-3.94.82-4.07.68-4.07-3.93,0-3-.68-4.88-1.63-4.88-2.09-.11-12.89-2-11.93-5.69.06-4.57-7.86-28.77-3.52-32.13,2.57-6.78,2.84-12.75.54-12.07-27.14,19.51,7,55.4-8.41,54-8.94,0-6.64,5.56,3,7.46,11.68.89,8.27,13.69,11.93,20.87,4,4.1-2.09,8.23-.27,12.88.67,2.58.4,3.53-1.22,3.53-5.64,1.27,1.65,10.52,6,6.78,6.78-3.53,15,0,15,6.64.35,5.07,9.9,15.78,2.85,18.44-.48-.64-21.63,11.71-17.9,13.29,2.5,3.26,14.06-5.36,16.13,0,5,7,10.58-12.86,11.12,5.28,1,10.59-9.37,19.88-16.81,14-5.23-5.28-8.31,2.49-4.2,6.51,6.21,11-12.76,13.59-9.9,16.67,2.71,1.76,9.35.68,14.24-2.3,4.6-2.85,6.64-1.77,5.15,2.84-.55,1.63-5.15,4.75-11.93,8-12.79,4.56-24.62,20.2-28.07,31.46-4.61,20.58-25.47,2.53-38.37,38.36-1.95,5.85-10.2,17-11.79,21.7-6,6.91-35.63,28.21-34.71,36.06-2.74,7.63-10.46,18.83-13.28,28.33-7.31,14.44.89,39.14,4.61,52.88,1.47,5.61,8,7.41,6.77,15.86-1.89,9.25,11.77,18.83,14.37,26.57,4,7.91,8.56,5.14,14.24,14,5.29,7.05,5.56,7.86,5.83,17.76s.41,10.44,4.61,13.83c3,2.57,5.29,6.37,7.19,12.33,3.1,10.08,13.08,22.61,17.48,31.32,5.7,8.5-1.53,17.9,1.63,27.12,1.36,5.83,1.22,6.91-1.49,10.71-5.84,4.78,2.16,18.07-5.29,21.42-5.45,3.38-18.83,11.89-19.25,3.8.46-5.44-5.88-1-10.71-9.49-7.55-12-14.4-9.51-21.42-15.32-1.76-10.69-13.19-18-15.59-26.71-.41-3.66-1-4.07-5.42-4.48-8-.17-10-10.61-15.6-15.59-11.07-10.79,4.72-10.84-.4-22-5.76-5.22-4.53.59-7.19,3.25-6.82,2.48-8.65-11.62-5.69-16.94,3.93-9.5,3.25-17.63-2.58-28.07-4.34-7.86-5.69-9.08-9-9.08-11.55-3.26-32.63-33.91-46.36-31.19-5.15,0-6.65.68-10.85,5-4,3.59-32.18,23.58-30.91,13.29,0-2.31-1.22-3.93-4.07-5.43-10.83-4.21,8.14-10.18-13.56-11-23.83-1.24-17.66-10.41-24.81-7.72a63.08,63.08,0,0,1-13.42.67c-13.41-1.6-7.45,4.22-15.86,5.15a9.76,9.76,0,0,0-6.24,2.72c-10.65,8.33-14.39-3.7-16.67-12.88-1.62,3.16-6.6,17.42-9.09,11.39-2.75-2-4.31,4.48-12.6,2-6.62-2.35-21.51,4.87-32.68,10.84-5.64-1.31-19.44-4.71-23.18-4.6-4.34,0-7.32,4.47-5.42,8.13,1.22,2.3,2.44,2.44,10.71,1.76,11.59-1.33,9.46.37,13,6.24,3-1.85,14.44-9.13,15.73-9.36.4,0,1.35,1.36,2.17,3,4.19,1.91-14.79,17.58-14.51,19.52-.68,1.25,23.46,14.76,23.05,15.73,0,1.08-9.9,6.5-11.93,6.5-.82,0-1.63-1.22-2-2.71-.4-1.76-3.52-3.93-8.13-6-8-2.62-12.68-14.73-15.46-1.9-1.22,6.37-5.15,8.68-7.59,4.47-1.63-3-10.3-1.62-12.88,2.17-2.17,3.12-3.39,3.12-10.44.54-6.3-1.43-9.65-11.19-15.18-11.52-3,0-9.9-5.69-9.9-8.27,0-.68-1.08-1.22-2.44-1.22-5.38-1.1-13-7.84-13.83,2.71,0,5,.14,5-22.23.14-11.66-2.58-18.71-3.53-21-2.85-12.36,2.35-52.26,16-50.29,6.78,0-3-.41-3.12-5-1.9-3.93,1.09-5,4.75-2.85,9.22,3.45,5.69-6.83,8.73-8.27,14.37-1.76,3.66-5.15,6.1-18.84,13.29-15.19,7.86-16.81,8.54-19,6.64s-2.85-1.9-6.92-.13c-4.47,1.89-4.47,2-2.3,5.15,6.27,7.3-11.54,3.1-11,10.57-.68,3.12-1.36,3.93-3.39,3.26-10.62-2.53-3.19,11.74-14.38,13-7.22-.38-.75,15.27-6.77,19.12-2.72,2.84-3,3.79-1.5,6.1,3.29,9.24-5.15,8.32,1.9,27.79,2.31,8.68,5,15.19,6.92,17.35,2.34,2.28,5.91,10.77.54,8-5.32-2.54-6.45,4.19-12.34-1.76-10.33-6.26-26.52-7.25-40-14.37l-14.78-6.64c-6.1-10.29-14.72-28.18-14.24-36.61,0-7-2.57-12.47-6.1-12.47-3.12,0-8.81-7.46-8.81-11.39-4.95-8.92-13.67-15.9-18.3-30.23-6.43-12.69-3.36-16.57-9.76-22.92-23.58-14.69-8.42-23.76-36.34-25.48-11.71-.71-11.36-1.2-15.72-6.65-2.46,3.49-3.85,5.87-9.49,6.1-10-1.84-12,27-25.36,28.2-2.71,0-14.64-7.86-40.67-26.7-13.25-8.76-4-18.28-9.76-27.12-4.77-10.79-7-12.91-26-33.08-42.63-42.91-9.9-32.19-69.69-40.67-20.36-3.3-15.79-1.1-19.79,15.72.59.93-63.68-8.12-88.53-11-7.6-.81-10.71-2.57-42.71-22.64-85.68-53.55-82.7-51.65-82.7-54.77,0-3.53-.81-3.66-25.76-5.83-17.68-1.38-38.63-3.76-53.55-4.75-1.34-12.12-1.2-33.89-7.46-40-8.95-14.24-13.69-19-18.71-19-4.2,0-4.61-.27-3.79-3.39,2.48-17-20.22-8.57-23.46-23.18.57-4.53-24.5-15.42-28.2-15.46-2.56.73-12.38-7.9-13.69-9-.14-.13,1.08-4.07,2.85-9,6.62-13.32-2.82-9.73-.95-21,.67-4.75.4-6-1.5-6.64-2.71-1.09-12.87-22-12.87-26.31,0-1.49-2.31-5.28-5.29-8.54-8.08-6.8-2.71-13.24,1.22-19.25,8.47-6.6-4.14-18.11-10.85-24.27,1.07-10.07-4.38-25.8,9.36-17.62,3,2.17,3.11,2.17,2.44-.27-2-4.12-1.66-23.58-7.05-15.46l-3,2.85c-15.63-13.67-2.73-21.35-13-34.17-3.05-5.38-12.18-13.65-8.14-18.71,5.08-7.93-10.06-5,7.05-28.06-15.34-44.31-9.51-32.89,8.95-68.06,5.33-1.19,2.08-43.64,5.43-47.18,3.7-8.23-4.91-15.33,3.38-21.56,5.93-5.74,2.49-9.28,9.22-15.45C353.13,715,376.78,639.16,387,613c3.29-1.31,7.09-7.44,3.25-10.44-2.85-3.25-1.76-9.49,1.76-9.49,1.9,0,1.63-.54-1.08-2.57-6.43-3.3,2.56-11.46-1.49-16-3.12-4.83,2.48-17.57-.14-23.32-1.35-5.56-.54-17.08,1.49-18.3.54-.41,7.32,3.52,15.19,8.68,12.52,9.09,13.95,7.52,22,12.2,2.56,2.84,8.54,2.14,10.44,3.66,6.49,12.24-8.46,31.57-1.49,31.59,3,.84,12.63-17.26,15.45-22-1.16-7.29-5.35-22.73-2.17-26.71,1.77-4.2,1.77-4.74-.13-5.82-2.35-.7-4-12.11.95-9.63,1.63.41,15.18,4.07,30.1,8,209.28,54.15,483.49,96.65,698.48,86.5,10,.54,3.3-11.85,11.25-11.39,12-2.5,3.41,30.14,14.1,24.94,3.39-.54,6.24.14,11.26,2.58,10.79,6.29,16.62-1.59,29.28,2,8.41,1.49,10.17,2.31,13.56,6.37,2.17,2.72,5.15,4.75,6.78,4.75,4.72.49,8.08,5.22,13.42,6.51,6.1,4.2,22.76-8.27,28.61-3,6.38,4.21,26.79-3,29.82,3.53-18.44,13.06-54.12,36.93-65.62,53.15,8.29,2.72,7.56,4.52,19.66-2,6.78-3.66,11.26-5.15,13-4.61,3,.95,3.52,2.71,1.35,4.07-.81.41-1.35,2.58-1.35,4.74,0,3.8.13,3.8,4.47,2.58a33.35,33.35,0,0,1,10.71-.54c9.6,2.34,15.32-9.26,25.63-12.61,8.55-3,16.39-12.39,22.5-15.73,1.36-.4,3.66-3,5-5.56,2.17-4.06,3.25-4.74,7.45-4.74,8.14,0,9.22,1.9,3.67,6.1-5.06,2.49-8.29,14.19-9,18.3,0,.41,2.44.55,5.42.27,13.23-2.33,21.18,12.82,36.2,12.07,14.26,2.12,19.6-9.9,33.62-10.85a101.37,101.37,0,0,0,14.64-3.66c6.92-2.57,7.73-2.44,7.73,1.49,2,19,7.81,0,40.13,18.44,1.22,2.17-9.35,5.29-17.89,5.29-7.19,0-8.82.41-10.58,3s-2.3,2.71-4.47.68c-7.26-4.5-21-5-26.71,3-3.38,4.76-13.14.42-15,6.92-3.9,6.78-8.3,4.19-8.13-1.63-2.66,1.75-9.83,9.27-8.82,2.85-1.79-9.76-6.25,13-8.67,15.86-5.07,10.49-2.11,9.55-10.17,20.07-6.65,8.67-9.63,16.13-7.19,17.62,29.9-27.83,31.92-45.44,15.59,7.59-1,11.32-6.83,11.3-5.69,24,.62,17.48-6.17,12-.68,33.62,3.92,11.55.65,28.3,6.64,33,5.35,3.74,5.54,17.27,13,18.44,23.09,6.42,37.49-41.31,27.25-65.08-6.37-14.64-8.81-25.62-7.73-35.11,1.58-10.48.69-30,10.58-35.12,1.76-1.08,2.71-.81,4.07,1.09,1.76,2.44,2,2.44,6.1-.55,3.66-2.71,4.33-4.06,4.33-8.81-1.38-6.82,7-9.42,6-14.91-.81-3.39,6.91-14.1,10.3-14.1,4.34-.14,15.46,4.07,17.09,6.51,1.08,1.49,4.2,2.84,7.86,3.25,6,.81,17.08,6.91,17.08,9.22-2.94,3.37-3.9,8.44-.68,14.78,2.38,3.25,2.05,19.91,2,26.3-3.93,4-13.55,10.52-11.12,15.45.68,4.75,6.24,9.09,8.14,6.24,4.6-6.91,14.37-18.17,15.59-18.17,2.17,0,11.79,2.71,11.79,3.26,0,.27,2.44,7.72,5.56,16.4,4.88,14.24,5.42,16.81,4.61,23.59-1.09,8.81-2.71,12.34-5.42,12.34-1.22,0-2.58,2.3-3.53,6.1-1.15,6.89-5,6.95-5.29,13,.76,5.11-15.1,22.42-4.2,21.55,11.34,1,25.63,13.1,36.74,3.39,8.54-8,10,1.15,14.37-3.93,4.34-6.1,11.66-13,13.7-13,16.7-7.05,34.61-22.68,50-36.19,11.66-11.53,13.15-15.87,7.87-22.78-3.12-4.07-3.26-5-1.9-10,1.63-6.1,2.17-6.38,22.23-10.58,11.31-2.55,10.59-.84,16.82,3.53,15.06-4.95,48.53-21.48,30.64-38.51-2.17-3.39-2.17-3.52,3.93-10,3.39-3.66,6.91-9.08,7.72-12.07.71-5.49,18.66-22.19,25.22-28.87,14.79-5.33,94-16.16,89.48-23.73-1.76-6.64,7.59-16.81,13.29-14.64,9.37,2.22,2.71-11.35,7.86-15.86,3.12-4.21,3.39-7.05,2.71-23.59-2-9.29,7.08-58.76,16.14-58.3,1.34,2.15-1.24,5.91,2.57,7.86,1.74,5,18.77-8.61,21.29-8.54,5.62,2.24,19.22,9.76,19.25,17.76,2.16,6.21,10.41,42.31,17.08,43.11,7,3.68,6.79,12.61,15.32,14.1,7.13.67,7.58,7.75,11,11C1990,665.45,1989.74,669,1987.44,669Z" transform="translate(-27.98 -18.17)"/><path class="b" d="M690.75,1573.32v20.47c-4.25,1.74-17.64,7.42-19.93,7.46-8-5.08-45.31-41.35-45.55-50.43l-6.11-13.15c-13.59-7.33-40.95-19.93-49.07-19.12-17-1.76-13.66-17.52-42-16.68.76,9.51-2.8,14.12-16.41,17.9-13.28,3.66-13.42,3.66-13.42-1.63-1.61-3.51,10-16.93,10.17-19.66-.95-.94-10.3,5.16-18,11.8-3.41,4-18.77,12.89-13.56,15.32,2,1.63.95,2.85-10,11.93-20.07,16.68-20.88,17.22-38.78,22.91-41.14,13.19-41.55,12.58-67.38,13.83,7-7.89,14.36-6.14,24-9.62,14.65-4.45,14.79-1.79,34.16-12.34,27-12.31,18.63-16.24,30.91-32.4l-6.64,2c-17.16,7.71-10.75-12.68-24-9.49-5.15.81-6,.54-6.5-1.76a8,8,0,0,1,1.22-5.7c3.25-4.61,0-13.56-4.88-13.56-11.26,0-18.44-8-15.32-16.81,2.82-4.32-2.09-13.77-2.44-17.76,4.25-5.58,18.31-12.65,23-18.84,1.93,2,5.94,5.87,8,7.73,19.17-19.43,16.64,5.39,21.56-26,.54-1.49-.41-1.22-4.07,1-8.92,6.69-20.5-.29-28.88-5.69-9.5-7.19,1.79-7.61-4.47-18.44-3.25-7.86-4.07-7.18,11.25-9.49,6-.81,11.93-1.76,13.29-2,1.9-.41,2.3.68,2.3,6.1,0,6.78,1.36,8.13,9.09,8.13,5.33,1.93,5.23-10.76,6.1-16.13-2-.95-9.56-4.37-9.76-5.42-.14-7-3.26-17.49-6.24-20.61-3.39-3.53-3.39-3.8-1.22-7.19,5.76-9.3,19,6.16,25.22-9.35-.35-4.69,22.16-14.55,25.35-15.73a43.8,43.8,0,0,1,6.51,1.36c4.61,1.22,6.51,1.22,8-.14s4.2-.68,13.42,2.71c11.25,4.21,11.52,4.48,10.71,8.27-.68,3.26-.27,3.94,2.85,4.75a24.64,24.64,0,0,0,9.22-.54c4.8-3.49,20.81,6.48,28.2,9.89,3.78-1.64,9.91-7.41,11.93-2.44,2.48,2.86,9.12,11.07,12.47,14.92.11,36.76.45,110.75.68,147.5,4.39.23,13.23.57,17.62.68,3.83,4.22,11.51,12.72,15.32,17,23.66-13.29,13.84-10.17,33.76,14.23C668.3,1566.65,666.53,1561,690.75,1573.32Z" transform="translate(-27.98 -18.17)"/><path class="b" d="M849.9,1656.77v-4.61c-1.11-7.64,13.83-11.49,16.81-6.51C873.87,1657.17,858.75,1656.54,849.9,1656.77Z" transform="translate(-27.98 -18.17)"/><path class="b" d="M929.89,1683.75H913.76c-.71-5.13-5.18-16.23-.28-17.76,5.35-4.6,4.3-2,10.71,2.71C930.81,1674.22,929.9,1677.28,929.89,1683.75Z" transform="translate(-27.98 -18.17)"/><path class="b" d="M965.14,1707.47c-4.33,3-6.79,8.07-9.76-.27-3.76-6.8.88-12.28,6.23-4.2Z" transform="translate(-27.98 -18.17)"/><path class="b" d="M961.88,1695.27c-.54-4-17.9.61-15.72-5.42,0-3.93.81-4.07,12.74-2,4.34.68,8.27,1.5,8.54,1.77C967.93,1691,963.88,1701.43,961.88,1695.27Z" transform="translate(-27.98 -18.17)"/><path class="b" d="M993.07,1702.59c-1.09,1.63-10.71,6.92-12.88,6.92-.68,0-1.9-1.9-2.71-4.07-3.64-8.91-7.88,2-6.92-13.69,3.61,2.83,7.72,6.39,12.47,5.15C988.05,1696,994.83,1699.74,993.07,1702.59Z" transform="translate(-27.98 -18.17)"/><path class="b" d="M1033.6,1759.13c-11.11,2.84-19.11,6.78-22.09,11.11-2.31,3.12-3.67,3.8-6.24,3.39-4.75-1-5.56-2.3-8.81-15.59-3.53-14.78-3.53-15.45.54-22.1,7-9.58-2.13-14.26,12.2-8.81,9.49,3.25,19,10.71,22.1,17.35,1.49,3.12,3.52,5.16,5.69,5.7C1042.73,1752.25,1041.62,1758,1033.6,1759.13Z" transform="translate(-27.98 -18.17)"/><path class="b" d="M1460.86,1704.25a2.45,2.45,0,0,1-2.79-1.19c-1.65-.85-4.31-2-2.68-4.29.59-.87,5.6-.64,6.51-.73,1.11.2,2.37,1.61,1.14,2.53a12.35,12.35,0,0,1-1.67,2.61C1461.33,1703.52,1461.26,1704.14,1460.86,1704.25Zm243.93-8.29c-2.6,1-3.25-1-6.1,2.23-1.44.09-.91-1.31-2.87-.48-2.14,1.2-8.52,1.9-10.62,3.19-2.14-1.09-5.32.07-7.6-.66-2.27-4-1.12-2.42,2.36-3a12.94,12.94,0,0,0,4.89-2.84c1.29-.72,8.17-1.86,9.6-1.47C1698,1695.11,1703.07,1693,1704.79,1696Zm1.78-18.55c.24,1,2.46,2-.15,1.72,1.63,1.22-1.18.8-1.65,0-.12-.5-.33-.92-.91-.76a8.31,8.31,0,0,1,1,2.48c-.45,2.31-1.09-.73-1.67-1.09-.06-.17-4.33-3.8-3.88-4A12.49,12.49,0,0,1,1706.57,1677.41Zm-164.89-18.07,9.88,2c.88-.09,10.58-1.62,11.08-1.12,1.1.34,3.8,1.5,4.92,1.34a50.17,50.17,0,0,1,9-1.31,15.93,15.93,0,0,1,5,1.21c.89-.47,6.51-.21,7.58-.23,2.58,1.73,9,.12,11.71-.5l7.37,2.25c3.64-1.57,5.73-1.06,9.25.33,1.24-1.42,2.59-.61,3.32.81.94.9,1.93-.36,2.44-1.14,1.17.11.86.73.6,1.6.62.34,2.27,1,2.13,2,.41,2.51,3.69.69,5.15.36.3-1.09-.93-.77-1.57-.94-1.25-.31-3.39-2.51-4.21-3.45,3.09.46,10.92,5.24,12.47,1,2.22,0,6.13,2.81,7.91.71a4.07,4.07,0,0,1,2.28,1.12c1.17.2,3.73.82,4.66,1.59.72.65,1.61,2.45,2.74,1.32.33-.63,1.16-1.56,1.37-.28l-.86,1.32c2.67-.94,2.12-1.33,3.87,1.39,1,.66,1.69,1.15,2.82,0a8.2,8.2,0,0,0,5.8,2.46c5.71-4.85,3.68-1.12,3,3.34.14,1-.53,4.53.18,5.32-.25.79-.52,1.44.28,1.93.49.59,1.59,0,2.08-.3-.71,1.1.54,2.37,1.14,3.19-.53.39-1.28.76-1.12,1.55-1,.48-1.31-.86-1.75-1.4-2-.28-1.35,1.41-.48,2.31-1,1.41-2.48.34-3.6-.26a19.26,19.26,0,0,0-3.34,1.42c-4,0-6.53,5.08-8.37,8,0,2.89-1.11,4.91-4.23,5.12-1,.37.4,2.94.48,3.52-.9,1.22-4,3.1-5.35,3.88-4.7,2-6.24,1.87-11.07,1-2.58.72-4.54,1.86-7.43,1.37-1.31,0-6.24,2.75-7.42,3.45-.8,0-3.34,0-3.85.61-.39-1-1-1.48.43-1.65.64-.7-.54-1.35-1-1.75-.66.5-2,2.06-2.91,2-2.35-.75-4.91.1-6.11-2.64-1.58-1.31-4-.7-5.75-.22-1.15.89-3,2.36-4.59,1.64-1.68-1.07-3.15-3.39-4.94-4.28-2.64.39-5.78,1.68-8.52,1.49-.62.38-2.28,1.46-3.06,1.4a2,2,0,0,0-2.82,0c-.55-2.32-4.49-.73-6.08-.73a15.26,15.26,0,0,0-7.38-1.29c.66-2.56-2-1.73-3.21-.76-.22,1.07.57.7,1.29.76-.85,1.8-3.26,2.73-5.1,3.11-2.36.5-5.45.2-7.85.33-.55.19-.48,1.62-.58,2-2.13.22-3.94-2-5.2-3.45a24.86,24.86,0,0,1-4-.45c-.77,0-2.89.07-3.6-.41l-1.32,1.12c-2.45,1.86-7,1.1-9.35-.48-1.38.63-.69,1.92-.33,3.06-1.49.38-2.25-2.15-2.89-3.09l0-2.76c1.18-.93,7.28-2.21,3.53-3.83-3.12,1.13-3.17-2.55-.84-3.72-1.8-4.37.83-1.6.18-6.9.56-5.6,5.28-5.14,1.19-8.44-2.83-12-4.72-3.06-7.66-10.36-.56-1-2-2.74-1.52-3.93,3.7-1.25,13.46-3.76,9.41-9.13C1525.57,1656.59,1537.55,1656.61,1541.68,1659.34Z" transform="translate(-27.98 -18.17)"/><rect class="b" x="1508.78" y="1647.38"/><rect class="b" x="1540.97" y="1675.23"/><rect class="b" x="1497.2" y="1653.72"/><path class="c" d="M627.1,742.66s.08.11.08.11,63.57-97.61,63.57-129.68c0-47.21-32.22-67.75-63.65-67.82s-63.64,20.61-63.64,67.82c0,32.07,63.61,129.68,63.61,129.68Z" transform="translate(-27.98 -18.17)"/><path class="b" d="M627.1,591.18A44.84,44.84,0,0,1,645,595a12.62,12.62,0,0,1,7.44,11.55v6.85H601.73v-6.81A12.53,12.53,0,0,1,609.17,595,44.15,44.15,0,0,1,627.1,591.18Zm-33.83,1.06a8.49,8.49,0,0,0,8.46-8.46c-.42-11.19-16.51-11.19-16.92,0A8.48,8.48,0,0,0,593.27,592.24Zm4.78,4.65c-7.45-1.18-21.59.08-21.7,9.86v6.64h19v-6.81A19,19,0,0,1,598.05,596.89Zm62.89-4.65a8.48,8.48,0,0,0,8.46-8.46c-.41-11.19-16.5-11.19-16.92,0A8.49,8.49,0,0,0,660.94,592.24Zm16.92,14.51c-.11-9.78-14.24-11-21.7-9.86a19,19,0,0,1,2.67,9.69v6.81h19ZM627.1,562.63a12.67,12.67,0,0,1,12.69,12.69c-.63,16.83-24.75,16.83-25.37,0A12.67,12.67,0,0,1,627.1,562.63Z" transform="translate(-27.98 -18.17)"/><path class="c" d="M402.17,980.92s.07.1.07.1,63.57-97.6,63.57-129.68c0-47.2-32.22-67.74-63.64-67.81s-63.65,20.61-63.65,67.81c0,32.08,63.61,129.68,63.61,129.68Z" transform="translate(-27.98 -18.17)"/><path class="b" d="M402.17,829.44a44.83,44.83,0,0,1,17.93,3.81,12.62,12.62,0,0,1,7.44,11.55v6.85H376.79v-6.81a12.53,12.53,0,0,1,7.44-11.55A44.16,44.16,0,0,1,402.17,829.44Zm-33.84,1.06a8.49,8.49,0,0,0,8.46-8.46c-.42-11.19-16.51-11.19-16.92,0A8.48,8.48,0,0,0,368.33,830.5Zm4.78,4.65c-7.45-1.18-21.59.08-21.7,9.86v6.64h19v-6.81A19,19,0,0,1,373.11,835.15ZM436,830.5a8.48,8.48,0,0,0,8.46-8.46c-.41-11.19-16.5-11.19-16.92,0A8.49,8.49,0,0,0,436,830.5ZM452.92,845c-.11-9.78-14.24-11-21.7-9.86a19,19,0,0,1,2.67,9.69v6.81h19Zm-50.75-44.12a12.67,12.67,0,0,1,12.68,12.69c-.63,16.83-24.75,16.82-25.37,0A12.67,12.67,0,0,1,402.17,800.89Z" transform="translate(-27.98 -18.17)"/><path class="c" d="M478.5,1494.82s.07.11.07.11,63.57-97.6,63.57-129.68c0-47.2-32.22-67.74-63.64-67.81s-63.65,20.61-63.65,67.81c0,32.08,63.61,129.68,63.61,129.68Z" transform="translate(-27.98 -18.17)"/><path class="b" d="M478.5,1343.35a44.83,44.83,0,0,1,17.93,3.81,12.62,12.62,0,0,1,7.45,11.54v6.86H453.12v-6.81a12.55,12.55,0,0,1,7.44-11.55A44.16,44.16,0,0,1,478.5,1343.35Zm-33.84,1.06a8.49,8.49,0,0,0,8.46-8.46c-.41-11.19-16.51-11.19-16.92,0A8.49,8.49,0,0,0,444.66,1344.41Zm4.78,4.65c-7.45-1.18-21.58.08-21.7,9.86v6.64h19v-6.81A19.08,19.08,0,0,1,449.44,1349.06Zm62.9-4.65a8.49,8.49,0,0,0,8.46-8.46c-.42-11.19-16.51-11.19-16.92,0A8.48,8.48,0,0,0,512.34,1344.41Zm16.92,14.51c-.12-9.78-14.25-11-21.7-9.86a19.07,19.07,0,0,1,2.66,9.69v6.81h19ZM478.5,1314.8a12.68,12.68,0,0,1,12.69,12.69c-.63,16.83-24.75,16.82-25.38,0A12.68,12.68,0,0,1,478.5,1314.8Z" transform="translate(-27.98 -18.17)"/><path class="d" d="M627.1,1223s.08.1.08.1,63.57-97.6,63.57-129.68c0-47.2-32.22-67.74-63.65-67.81s-63.64,20.61-63.64,67.81c0,32.08,63.61,129.68,63.61,129.68Z" transform="translate(-27.98 -18.17)"/><path class="b" d="M627.1,1071.5a44.84,44.84,0,0,1,17.94,3.81,12.62,12.62,0,0,1,7.44,11.55v6.85H601.73v-6.81a12.53,12.53,0,0,1,7.44-11.55A44.15,44.15,0,0,1,627.1,1071.5Zm-33.83,1.06a8.49,8.49,0,0,0,8.46-8.46c-.42-11.19-16.51-11.19-16.92,0A8.48,8.48,0,0,0,593.27,1072.56Zm4.78,4.65c-7.45-1.18-21.59.08-21.7,9.86v6.64h19v-6.81A19,19,0,0,1,598.05,1077.21Zm62.89-4.65a8.48,8.48,0,0,0,8.46-8.46c-.41-11.19-16.5-11.19-16.92,0A8.49,8.49,0,0,0,660.94,1072.56Zm16.92,14.51c-.11-9.78-14.24-11-21.7-9.86a19,19,0,0,1,2.67,9.69v6.81h19ZM627.1,1043a12.67,12.67,0,0,1,12.69,12.69c-.63,16.83-24.75,16.82-25.37,0A12.67,12.67,0,0,1,627.1,1043Z" transform="translate(-27.98 -18.17)"/><path class="d" d="M1210.1,882.17s.07.11.07.11,63.57-97.61,63.57-129.69c0-47.2-32.22-67.74-63.64-67.81s-63.64,20.61-63.64,67.81c0,32.08,63.61,129.69,63.61,129.69Z" transform="translate(-27.98 -18.17)"/><path class="b" d="M1210.1,730.69A44.84,44.84,0,0,1,1228,734.5a12.64,12.64,0,0,1,7.44,11.55v6.85h-50.76v-6.81a12.54,12.54,0,0,1,7.45-11.55A44.15,44.15,0,0,1,1210.1,730.69Zm-33.84,1.06a8.48,8.48,0,0,0,8.46-8.46c-.41-11.19-16.5-11.19-16.92,0A8.49,8.49,0,0,0,1176.26,731.75Zm4.78,4.65c-7.44-1.18-21.58.08-21.7,9.86v6.64h19v-6.81A19.07,19.07,0,0,1,1181,736.4Zm62.9-4.65a8.49,8.49,0,0,0,8.46-8.46c-.41-11.19-16.51-11.19-16.92,0A8.49,8.49,0,0,0,1243.94,731.75Zm16.92,14.51c-.12-9.78-14.25-11-21.7-9.86a19.08,19.08,0,0,1,2.67,9.69v6.81h19Zm-50.76-44.12a12.68,12.68,0,0,1,12.69,12.69c-.63,16.83-24.75,16.82-25.38,0A12.68,12.68,0,0,1,1210.1,702.14Z" transform="translate(-27.98 -18.17)"/><path class="c" d="M1428.71,731.63s.07.11.07.11,63.57-97.61,63.57-129.69c0-47.2-32.22-67.74-63.64-67.81s-63.64,20.61-63.64,67.81c0,32.08,63.6,129.69,63.6,129.69Z" transform="translate(-27.98 -18.17)"/><path class="b" d="M1428.71,580.15a44.83,44.83,0,0,1,17.93,3.81,12.63,12.63,0,0,1,7.45,11.55v6.85h-50.76v-6.81a12.55,12.55,0,0,1,7.44-11.55A44.16,44.16,0,0,1,1428.71,580.15Zm-33.84,1.06a8.49,8.49,0,0,0,8.46-8.46c-.41-11.19-16.51-11.19-16.92,0A8.49,8.49,0,0,0,1394.87,581.21Zm4.78,4.65c-7.45-1.18-21.58.08-21.7,9.86v6.64h19v-6.81A19.07,19.07,0,0,1,1399.65,585.86Zm62.9-4.65a8.49,8.49,0,0,0,8.46-8.46c-.42-11.19-16.51-11.19-16.92,0A8.48,8.48,0,0,0,1462.55,581.21Zm16.92,14.51c-.12-9.78-14.25-11-21.7-9.86a19.07,19.07,0,0,1,2.66,9.69v6.81h19Zm-50.76-44.12a12.68,12.68,0,0,1,12.69,12.69c-.63,16.83-24.75,16.82-25.38,0A12.68,12.68,0,0,1,1428.71,551.6Z" transform="translate(-27.98 -18.17)"/><path class="c" d="M1795.11,830.38s.08.1.08.1,63.57-97.6,63.57-129.68c0-47.2-32.22-67.74-63.65-67.81s-63.64,20.61-63.64,67.81c0,32.08,63.61,129.68,63.61,129.68Z" transform="translate(-27.98 -18.17)"/><path class="b" d="M1795.11,678.9a44.84,44.84,0,0,1,17.94,3.81,12.62,12.62,0,0,1,7.44,11.55v6.85h-50.76V694.3a12.54,12.54,0,0,1,7.45-11.55A44.15,44.15,0,0,1,1795.11,678.9ZM1761.28,680a8.48,8.48,0,0,0,8.45-8.46c-.41-11.19-16.5-11.19-16.91,0A8.48,8.48,0,0,0,1761.28,680Zm4.77,4.65c-7.44-1.18-21.58.08-21.69,9.86v6.64h19V694.3A19.07,19.07,0,0,1,1766.05,684.61ZM1829,680a8.49,8.49,0,0,0,8.46-8.46c-.41-11.19-16.51-11.19-16.92,0A8.49,8.49,0,0,0,1829,680Zm16.92,14.51c-.12-9.78-14.24-11-21.7-9.86a19.08,19.08,0,0,1,2.67,9.69v6.81h19Zm-50.76-44.12A12.68,12.68,0,0,1,1807.8,663c-.63,16.83-24.75,16.82-25.38,0A12.68,12.68,0,0,1,1795.11,650.35Z" transform="translate(-27.98 -18.17)"/><path class="c" d="M1666.65,1141.59s.08.11.08.11,63.57-97.61,63.57-129.68c0-47.21-32.22-67.75-63.65-67.82S1603,964.81,1603,1012c0,32.07,63.61,129.68,63.61,129.68Z" transform="translate(-27.98 -18.17)"/><path class="b" d="M1666.65,990.12a45,45,0,0,1,17.94,3.8,12.62,12.62,0,0,1,7.44,11.55v6.85h-50.75v-6.81a12.51,12.51,0,0,1,7.44-11.54A44.15,44.15,0,0,1,1666.65,990.12Zm-33.83,1a8.48,8.48,0,0,0,8.46-8.46c-.42-11.19-16.51-11.19-16.92,0A8.48,8.48,0,0,0,1632.82,991.17Zm4.78,4.66c-7.45-1.19-21.59.07-21.7,9.85v6.64h19v-6.81A18.92,18.92,0,0,1,1637.6,995.83Zm62.89-4.66a8.48,8.48,0,0,0,8.46-8.46c-.41-11.19-16.5-11.19-16.92,0A8.48,8.48,0,0,0,1700.49,991.17Zm16.92,14.51c-.11-9.78-14.24-11-21.7-9.85a19,19,0,0,1,2.67,9.68v6.81h19Zm-50.76-44.12a12.67,12.67,0,0,1,12.69,12.69c-.63,16.83-24.75,16.83-25.38,0A12.68,12.68,0,0,1,1666.65,961.56Z" transform="translate(-27.98 -18.17)"/><path class="c" d="M1596.31,1692.32s.07.11.07.11,63.57-97.6,63.57-129.68c0-47.21-32.22-67.74-63.64-67.82-31.42.08-63.64,20.61-63.64,67.82,0,32.08,63.6,129.68,63.6,129.68Z" transform="translate(-27.98 -18.17)"/><path class="b" d="M1596.31,1540.85a44.93,44.93,0,0,1,17.93,3.8,12.63,12.63,0,0,1,7.45,11.55v6.85h-50.76v-6.81a12.52,12.52,0,0,1,7.45-11.54A44.15,44.15,0,0,1,1596.31,1540.85Zm-33.84,1.06a8.49,8.49,0,0,0,8.46-8.46c-.41-11.2-16.51-11.19-16.92,0A8.49,8.49,0,0,0,1562.47,1541.91Zm4.78,4.65c-7.45-1.19-21.58.07-21.7,9.85v6.64h19v-6.81A19,19,0,0,1,1567.25,1546.56Zm62.9-4.65a8.49,8.49,0,0,0,8.46-8.46c-.42-11.2-16.51-11.19-16.92,0A8.49,8.49,0,0,0,1630.15,1541.91Zm16.92,14.5c-.12-9.77-14.25-11-21.7-9.85a19,19,0,0,1,2.66,9.68v6.81h19Zm-50.76-44.11A12.67,12.67,0,0,1,1609,1525c-.63,16.82-24.75,16.82-25.38,0A12.67,12.67,0,0,1,1596.31,1512.3Z" transform="translate(-27.98 -18.17)"/></svg>