<svg id="Layer_1" data-name="Layer 1" xmlns="http://www.w3.org/2000/svg" viewBox="0 0 25 24.5"><defs><style>.cls-1{fill:none;stroke:#000;stroke-miterlimit:10;}</style></defs><polyline class="cls-1" points="24.5 0 24.5 24 0.5 24 0.5 0"/><path d="M3,11.22C3,7.94,5,6,7.7,6a4.14,4.14,0,0,1,3,1.27l-1,1.15a2.71,2.71,0,0,0-2-.87c-1.77,0-3,1.38-3,3.63s1.06,3.67,3.07,3.67a2.26,2.26,0,0,0,1.43-.44V12.23H7.39V10.77h3.49V15.2a4.59,4.59,0,0,1-3.21,1.19C5,16.39,3,14.54,3,11.22Z" transform="translate(0.5)"/><path d="M13.06,11.8V6.17h1.78v5.77c0,2.18.81,2.9,2,2.9s2.07-.72,2.07-2.9V6.17h1.71V11.8c0,3.3-1.46,4.59-3.78,4.59S13.06,15.1,13.06,11.8Z" transform="translate(0.5)"/></svg>