<?xml version="1.0" encoding="utf-8"?>
<!-- Generator: Adobe Illustrator 26.0.1, SVG Export Plug-In . SVG Version: 6.00 Build 0)  -->
<svg version="1.1" id="Layer_1" xmlns="http://www.w3.org/2000/svg" xmlns:xlink="http://www.w3.org/1999/xlink" x="0px" y="0px"
	 viewBox="0 0 24 24" style="enable-background:new 0 0 24 24;" xml:space="preserve">
<style type="text/css">
	.st0{fill:none;}
</style>
<path class="st0" d="M0,0h24v24H0L0,0z"/>
<g>
	<path d="M4.2,15.6l3-9.2h1.9l3,9.2h-1.7l-0.7-2.5H6.6l-0.7,2.5H4.2z M7.3,10.7L7,11.8h2.3L9,10.7c-0.1-0.5-0.3-1-0.4-1.5
		c-0.1-0.5-0.3-1-0.4-1.5H8.1C8,8.2,7.8,8.7,7.7,9.2S7.4,10.2,7.3,10.7z"/>
	<path d="M15.9,15.8c-0.6,0-1.2-0.1-1.8-0.3c-0.6-0.2-1.1-0.6-1.5-1l1-1.1c0.3,0.3,0.7,0.6,1.1,0.7c0.4,0.2,0.8,0.3,1.3,0.3
		c0.5,0,0.9-0.1,1.2-0.3c0.3-0.2,0.4-0.5,0.4-0.9c0-0.4-0.1-0.7-0.4-0.8c-0.3-0.2-0.6-0.3-1-0.5l-1.3-0.5c-0.3-0.1-0.6-0.3-0.9-0.5
		c-0.3-0.2-0.5-0.5-0.7-0.8C13.1,9.7,13,9.3,13,8.8c0-0.5,0.1-0.9,0.4-1.3c0.3-0.4,0.6-0.7,1.1-0.9c0.5-0.2,1-0.3,1.6-0.3
		c0.5,0,1,0.1,1.5,0.3c0.5,0.2,0.9,0.5,1.3,0.8l-0.8,1c-0.3-0.2-0.6-0.4-0.9-0.6c-0.3-0.1-0.7-0.2-1.1-0.2c-0.4,0-0.8,0.1-1,0.3
		c-0.3,0.2-0.4,0.5-0.4,0.8c0,0.2,0.1,0.4,0.2,0.6c0.1,0.2,0.3,0.3,0.5,0.4c0.2,0.1,0.5,0.2,0.7,0.3l1.2,0.5c0.5,0.2,1,0.5,1.3,0.9
		c0.3,0.4,0.5,0.9,0.5,1.6c0,0.5-0.1,0.9-0.4,1.4c-0.3,0.4-0.6,0.7-1.1,1C17.2,15.6,16.6,15.8,15.9,15.8z"/>
</g>
</svg>
