<svg xmlns="http://www.w3.org/2000/svg" width="24" height="24" viewBox="0 0 24 24"><path d="M-.54.11h24v24h-24Z" transform="translate(0.54 -0.11)" style="fill:none"/><path d="M5.25,7a12.1,12.1,0,0,1,1.2-.16c.44,0,.87-.06,1.31-.06a7.88,7.88,0,0,1,1.36.11,3.3,3.3,0,0,1,1.22.44,2.54,2.54,0,0,1,.89.92,3.05,3.05,0,0,1,.35,1.54,3.15,3.15,0,0,1-.3,1.43,2.79,2.79,0,0,1-.79,1,3.24,3.24,0,0,1-1.13.56,4.69,4.69,0,0,1-1.3.18H7.55l-.31,0-.21,0V16H5.25ZM7.9,8.3l-.49,0a2.53,2.53,0,0,0-.38,0v3l.16,0,.22,0H7.8a3.23,3.23,0,0,0,.69-.07,1.61,1.61,0,0,0,.62-.24,1.18,1.18,0,0,0,.43-.48,1.75,1.75,0,0,0,.17-.82,1.38,1.38,0,0,0-.16-.71,1.19,1.19,0,0,0-.41-.45,1.57,1.57,0,0,0-.58-.23A2.84,2.84,0,0,0,7.9,8.3Z" transform="translate(0.54 -0.11)"/><path d="M12.71,7l.64-.1L14,6.82l.67,0h.6a6.54,6.54,0,0,1,1.25.12,3.37,3.37,0,0,1,1.11.42,2.33,2.33,0,0,1,.78.81,2.55,2.55,0,0,1,.29,1.26,3.93,3.93,0,0,1-.11,1,3,3,0,0,1-.31.72,2.23,2.23,0,0,1-.47.54,4.33,4.33,0,0,1-.61.41l2.2,4H17.39l-1.84-3.56H14.49V16H12.71Zm2.73,1.36-.54,0a1.81,1.81,0,0,0-.41.05v2.64h.7a2.06,2.06,0,0,0,1.21-.34,1.3,1.3,0,0,0,.47-1.12,1.14,1.14,0,0,0-.37-.91A1.49,1.49,0,0,0,15.44,8.35Z" transform="translate(0.54 -0.11)"/></svg>