<?xml version="1.0" encoding="utf-8"?>
<!-- Generator: Adobe Illustrator 26.0.1, SVG Export Plug-In . SVG Version: 6.00 Build 0)  -->
<svg version="1.1" id="Layer_1" xmlns="http://www.w3.org/2000/svg" xmlns:xlink="http://www.w3.org/1999/xlink" x="0px" y="0px"
	 viewBox="0 0 24 24" style="enable-background:new 0 0 24 24;" xml:space="preserve">
<style type="text/css">
	.st0{fill:none;}
</style>
<path class="st0" d="M0,0h24v24H0L0,0z"/>
<g>
	<path d="M3.8,15.6l3-9.2h1.9l3,9.2H9.9l-0.7-2.5H6.1l-0.7,2.5H3.8z M6.8,10.7l-0.3,1.1h2.3l-0.3-1.1c-0.1-0.5-0.3-1-0.4-1.5
		C8,8.7,7.8,8.2,7.7,7.7H7.6c-0.1,0.5-0.2,1-0.4,1.5S7,10.2,6.8,10.7z"/>
	<path d="M12.8,15.6V6.4h1.6v4.2h0l3.3-4.2h1.8L16.7,10l3.3,5.6h-1.8l-2.5-4.3l-1.3,1.6v2.7H12.8z"/>
</g>
</svg>
