<?xml version="1.0" encoding="utf-8"?>
<!-- Generator: Adobe Illustrator 26.0.1, SVG Export Plug-In . SVG Version: 6.00 Build 0)  -->
<svg version="1.1" id="Layer_1" xmlns="http://www.w3.org/2000/svg" xmlns:xlink="http://www.w3.org/1999/xlink" x="0px" y="0px"
	 viewBox="0 0 24 24" style="enable-background:new 0 0 24 24;" xml:space="preserve">
<style type="text/css">
	.st0{fill:none;}
</style>
<path class="st0" d="M0,0h24v24H0L0,0z"/>
<g>
	<path d="M3.7,15.6V6.4h1.8l1.6,4.5c0.1,0.3,0.2,0.6,0.3,0.9c0.1,0.3,0.2,0.6,0.3,0.9h0.1c0.1-0.3,0.2-0.6,0.3-0.9
		c0.1-0.3,0.2-0.6,0.3-0.9L10,6.4h1.8v9.2h-1.5v-4.2c0-0.3,0-0.6,0-0.9c0-0.3,0.1-0.7,0.1-1c0-0.3,0.1-0.7,0.1-0.9h-0.1l-0.7,2.1
		l-1.5,4.1h-1l-1.5-4.1L5,8.5H5C5,8.8,5,9.1,5.1,9.4c0,0.3,0.1,0.7,0.1,1c0,0.3,0,0.7,0,0.9v4.2H3.7z"/>
	<path d="M14.1,15.6V6.4H17c0.7,0,1.3,0.1,1.8,0.3c0.5,0.2,1,0.5,1.3,0.9s0.5,1,0.5,1.7c0,0.7-0.2,1.2-0.5,1.7
		c-0.3,0.4-0.7,0.8-1.2,1c-0.5,0.2-1.1,0.3-1.8,0.3h-1.3v3.4H14.1z M15.8,10.9h1.2c1.3,0,2-0.6,2-1.7c0-0.6-0.2-1-0.5-1.2
		c-0.3-0.2-0.9-0.3-1.5-0.3h-1.1V10.9z"/>
</g>
</svg>
