<?xml version="1.0" encoding="utf-8"?>
<!-- Generator: Adobe Illustrator 26.0.1, SVG Export Plug-In . SVG Version: 6.00 Build 0)  -->
<svg version="1.1" id="Layer_1" xmlns="http://www.w3.org/2000/svg" xmlns:xlink="http://www.w3.org/1999/xlink" x="0px" y="0px"
	 viewBox="0 0 24 24" style="enable-background:new 0 0 24 24;" xml:space="preserve">
<style type="text/css">
	.st0{fill:none;}
</style>
<path class="st0" d="M0,0h24v24H0L0,0z"/>
<g>
	<path d="M4.7,15.6V6.4h2.9c0.7,0,1.3,0.1,1.8,0.3c0.5,0.2,1,0.5,1.3,0.9s0.5,1,0.5,1.7c0,0.7-0.2,1.2-0.5,1.7
		c-0.3,0.4-0.7,0.8-1.2,1c-0.5,0.2-1.1,0.3-1.8,0.3H6.4v3.4H4.7z M6.4,10.9h1.2c1.3,0,2-0.6,2-1.7c0-0.6-0.2-1-0.5-1.2
		C8.7,7.8,8.2,7.7,7.5,7.7H6.4V10.9z"/>
	<path d="M12.9,15.6V6.4H16c0.6,0,1.2,0.1,1.7,0.3s0.9,0.5,1.2,0.8c0.3,0.4,0.4,0.9,0.4,1.6c0,0.7-0.2,1.3-0.5,1.7
		c-0.3,0.4-0.8,0.7-1.3,0.9l2.2,3.8h-1.8l-2-3.6h-1.4v3.6H12.9z M14.5,10.7h1.3c0.6,0,1.1-0.1,1.4-0.4c0.3-0.3,0.5-0.7,0.5-1.2
		c0-0.5-0.2-0.9-0.5-1.1c-0.3-0.2-0.8-0.3-1.4-0.3h-1.3V10.7z"/>
</g>
</svg>
