<svg id="Layer_1" data-name="Layer 1" xmlns="http://www.w3.org/2000/svg" viewBox="0 0 25 24.5"><defs><style>.cls-1{fill:none;stroke:#000;stroke-miterlimit:10;}</style></defs><polyline class="cls-1" points="24.5 0 24.5 24 0.5 24 0.5 0"/><path d="M6.69,6.21H8.77l3.27,10H10.16L8.63,10.9C8.31,9.84,8,8.69,7.73,7.59H7.66c-.27,1.11-.57,2.25-.89,3.31L5.23,16.24H3.42ZM5.35,12.12h4.72v1.4H5.35Z" transform="translate(0.5)"/><path d="M12.59,15l1-1.22a4,4,0,0,0,2.61,1.14c1.13,0,1.75-.51,1.75-1.29s-.65-1.09-1.56-1.48l-1.37-.59a2.87,2.87,0,0,1-2-2.66C13,7.25,14.44,6,16.4,6A4.41,4.41,0,0,1,19.49,7.3l-.91,1.13a3.25,3.25,0,0,0-2.18-.86c-.95,0-1.57.44-1.57,1.18s.76,1.08,1.6,1.42l1.35.56a2.79,2.79,0,0,1,2,2.71c0,1.62-1.35,3-3.6,3A5.16,5.16,0,0,1,12.59,15Z" transform="translate(0.5)"/></svg>