<svg id="Layer_1" data-name="Layer 1" xmlns="http://www.w3.org/2000/svg" viewBox="0 0 25 24.5"><defs><style>.cls-1{fill:none;stroke:#000;stroke-miterlimit:10;}</style></defs><polyline class="cls-1" points="24.5 0 24.5 24 0.5 24 0.5 0"/><path d="M3.09,6.17h2l1.77,4.9c.22.64.42,1.32.65,2h.06c.22-.65.41-1.33.63-2l1.73-4.9h2v10H10.32V11.61c0-.92.15-2.26.23-3.19h-.06l-.81,2.34L8,15.26H7l-1.66-4.5-.8-2.34H4.46c.09.93.23,2.27.23,3.19V16.2H3.09Z" transform="translate(0.5)"/><path d="M14.51,6.17h3.16c2.22,0,3.87.78,3.87,3.1s-1.65,3.25-3.81,3.25H16.29V16.2H14.51Zm3.07,4.92c1.5,0,2.21-.59,2.21-1.82S19,7.6,17.52,7.6H16.29v3.49Z" transform="translate(0.5)"/></svg>