<?xml version="1.0" encoding="utf-8"?>
<!-- Generator: Adobe Illustrator 26.0.1, SVG Export Plug-In . SVG Version: 6.00 Build 0)  -->
<svg version="1.1" id="Layer_1" xmlns="http://www.w3.org/2000/svg" xmlns:xlink="http://www.w3.org/1999/xlink" x="0px" y="0px"
	 viewBox="0 0 24 24" style="enable-background:new 0 0 24 24;" xml:space="preserve">
<style type="text/css">
	.st0{fill:none;}
</style>
<path class="st0" d="M0,0h24v24H0L0,0z"/>
<g>
	<path d="M8.9,15.6v-2.3H5v-1.1l3.5-5.5h1.9V12h1.1v1.2h-1.1v2.3H8.9z M6.5,12h2.3v-2c0-0.3,0-0.6,0-0.9c0-0.4,0-0.7,0-0.9H8.9
		C8.8,8.4,8.7,8.6,8.5,8.9C8.4,9.1,8.3,9.3,8.2,9.6L6.5,12z"/>
	<path d="M15.5,15.8c-0.6,0-1.1-0.1-1.6-0.3c-0.5-0.2-0.8-0.5-1.1-0.9s-0.4-0.8-0.4-1.3c0-0.6,0.2-1,0.5-1.4
		c0.3-0.4,0.7-0.7,1.1-0.9V11c-0.3-0.2-0.6-0.5-0.9-0.9c-0.2-0.3-0.4-0.7-0.4-1.2c0-0.5,0.1-0.9,0.3-1.3s0.6-0.6,1-0.8
		c0.4-0.2,0.9-0.3,1.4-0.3c0.8,0,1.4,0.2,1.9,0.7c0.5,0.4,0.7,1,0.7,1.7c0,0.4-0.1,0.8-0.4,1.2c-0.3,0.4-0.5,0.6-0.8,0.9V11
		c0.4,0.2,0.8,0.5,1.1,0.9c0.3,0.4,0.5,0.8,0.5,1.4c0,0.5-0.1,0.9-0.4,1.2c-0.3,0.4-0.6,0.7-1.1,0.9C16.6,15.6,16.1,15.8,15.5,15.8z
		 M15.5,14.6c0.4,0,0.8-0.1,1.1-0.4s0.4-0.6,0.4-1c0-0.3-0.1-0.6-0.3-0.8c-0.2-0.2-0.4-0.4-0.8-0.5s-0.7-0.3-1.1-0.5
		c-0.3,0.2-0.5,0.4-0.7,0.7c-0.2,0.3-0.3,0.6-0.3,0.9c0,0.4,0.2,0.8,0.5,1.1S15,14.6,15.5,14.6z M16.1,10.6c0.2-0.2,0.4-0.5,0.6-0.7
		s0.2-0.5,0.2-0.8c0-0.4-0.1-0.7-0.3-1c-0.2-0.3-0.6-0.4-1-0.4c-0.3,0-0.6,0.1-0.9,0.3c-0.2,0.2-0.4,0.5-0.4,0.9
		c0,0.3,0.1,0.5,0.2,0.7c0.2,0.2,0.4,0.4,0.7,0.5C15.4,10.3,15.7,10.4,16.1,10.6z"/>
</g>
</svg>
