<svg xmlns="http://www.w3.org/2000/svg" width="24" height="24" viewBox="0 0 24 24"><path d="M-.54.11h24v24h-24Z" transform="translate(0.54 -0.11)" style="fill:none"/><path d="M11.74,13.46H10.18V16H8.61V13.46H4.67V12.31L8.79,6.83h1.39v5.28h1.56ZM8.61,9.22,6.34,12.11H8.61Z" transform="translate(0.54 -0.11)"/><path d="M12.74,13.77a2.23,2.23,0,0,1,.15-.83,2.62,2.62,0,0,1,.39-.67,3.51,3.51,0,0,1,.55-.54,6.51,6.51,0,0,1,.64-.43,4,4,0,0,1-1.08-.89A2,2,0,0,1,13,9.12a2.21,2.21,0,0,1,.22-.95,2.54,2.54,0,0,1,.62-.77,3.13,3.13,0,0,1,.94-.5,3.8,3.8,0,0,1,1.19-.18,4,4,0,0,1,1.1.15,3.14,3.14,0,0,1,.9.44,2.15,2.15,0,0,1,.61.7,1.82,1.82,0,0,1,.22.9,2.26,2.26,0,0,1-.4,1.34,3.46,3.46,0,0,1-1.08,1,4,4,0,0,1,1.24.95,2.07,2.07,0,0,1,.46,1.4,2.21,2.21,0,0,1-.25,1.06,2.54,2.54,0,0,1-.68.81A3.14,3.14,0,0,1,17,16a3.86,3.86,0,0,1-1.23.19A3.93,3.93,0,0,1,14.6,16a3.14,3.14,0,0,1-1-.48,2.15,2.15,0,0,1-.65-.76A2,2,0,0,1,12.74,13.77Zm4.63-.22A1,1,0,0,0,17.2,13a1.82,1.82,0,0,0-.42-.41,4.34,4.34,0,0,0-.56-.33c-.2-.1-.4-.2-.59-.31a2.45,2.45,0,0,0-1,.74,1.37,1.37,0,0,0-.35.85,1.08,1.08,0,0,0,.41.9,1.9,1.9,0,0,0,1.16.32,1.78,1.78,0,0,0,1.09-.31A1,1,0,0,0,17.37,13.55ZM14.58,9.2a1,1,0,0,0,.13.53,1.53,1.53,0,0,0,.35.37,2.64,2.64,0,0,0,.49.29l.55.26a2.13,2.13,0,0,0,.41-.26,1.88,1.88,0,0,0,.35-.34,2.2,2.2,0,0,0,.26-.39,1,1,0,0,0,.09-.41,1,1,0,0,0-.11-.47,1.15,1.15,0,0,0-.31-.35,1.19,1.19,0,0,0-.42-.21,1.59,1.59,0,0,0-.48-.07,1.51,1.51,0,0,0-.53.09,1.46,1.46,0,0,0-.41.23,1.13,1.13,0,0,0-.28.34A.92.92,0,0,0,14.58,9.2Z" transform="translate(0.54 -0.11)"/></svg>