<?xml version="1.0" encoding="utf-8"?>
<!-- Generator: Adobe Illustrator 26.0.1, SVG Export Plug-In . SVG Version: 6.00 Build 0)  -->
<svg version="1.1" id="Layer_1" xmlns="http://www.w3.org/2000/svg" xmlns:xlink="http://www.w3.org/1999/xlink" x="0px" y="0px"
	 viewBox="0 0 24 24" style="enable-background:new 0 0 24 24;" xml:space="preserve">
<style type="text/css">
	.st0{fill:none;}
</style>
<path class="st0" d="M0,0h24v24H0L0,0z"/>
<g>
	<path d="M7.9,15.8c-0.8,0-1.6-0.2-2.2-0.5c-0.7-0.4-1.2-0.9-1.5-1.6C3.8,12.9,3.6,12,3.6,11c0-1,0.2-1.9,0.6-2.6
		c0.4-0.7,0.9-1.3,1.6-1.6s1.4-0.6,2.2-0.6c0.7,0,1.2,0.1,1.7,0.4c0.5,0.2,0.8,0.5,1.1,0.8L9.8,8.5C9.6,8.3,9.3,8.1,9,7.9
		C8.8,7.8,8.4,7.7,8,7.7C7.2,7.7,6.5,8,6,8.6C5.5,9.2,5.2,10,5.2,11c0,1,0.2,1.9,0.7,2.5s1.2,0.9,2.1,0.9c0.3,0,0.5,0,0.7-0.1
		c0.2-0.1,0.4-0.2,0.6-0.3v-2H7.6v-1.3h3.2v4c-0.3,0.3-0.7,0.6-1.2,0.8C9.1,15.7,8.5,15.8,7.9,15.8z"/>
	<path d="M16.3,15.8c-0.7,0-1.3-0.1-1.8-0.4s-0.9-0.7-1.2-1.3c-0.3-0.6-0.4-1.4-0.4-2.4V6.4h1.6v5.3c0,0.7,0.1,1.2,0.2,1.6
		c0.2,0.4,0.4,0.7,0.7,0.8c0.3,0.2,0.6,0.2,1,0.2c0.4,0,0.7-0.1,1-0.2c0.3-0.2,0.5-0.4,0.7-0.8c0.2-0.4,0.2-0.9,0.2-1.6V6.4h1.6v5.1
		c0,1-0.1,1.8-0.4,2.4c-0.3,0.6-0.7,1.1-1.2,1.3C17.6,15.6,17,15.8,16.3,15.8z"/>
</g>
</svg>
