<svg xmlns="http://www.w3.org/2000/svg" xmlns:xlink="http://www.w3.org/1999/xlink" viewBox="0 0 88 83.5"><defs><style>.cls-1{fill:#c9c9c9;}.cls-2{clip-path:url(#clip-path);}.cls-3{isolation:isolate;}.cls-4{clip-path:url(#clip-path-2);}.cls-5{fill:none;stroke:#c9c9c9;stroke-miterlimit:10;}.cls-6{fill:#fff;}</style><clipPath id="clip-path" transform="translate(4.5 4.5)"><rect class="cls-1" x="0.5" y="0.5" width="78" height="39"/></clipPath><clipPath id="clip-path-2" transform="translate(4.5 4.5)"><rect class="cls-1" x="0.5" y="0.5" width="79" height="39"/></clipPath></defs><g id="Layer_2" data-name="Layer 2"><g id="Layer_1-2" data-name="Layer 1"><rect class="cls-1" x="5" y="5" width="78" height="39"/><g class="cls-2"><g class="cls-3"><rect class="cls-1" x="5" y="5" width="79" height="39"/><g class="cls-4"><rect class="cls-1" x="5" y="5" width="78" height="39"/><g class="cls-2"><rect class="cls-1" width="88" height="49"/></g></g></g></g><rect class="cls-5" x="5" y="5" width="78" height="78"/><g class="cls-3"><path class="cls-6" d="M20.64,26.5v-13h3.81l3,9.27,3-9.27h3.81v13H31.59V16.55l-3.13,10H26.4l-3.12-9.9v9.9Z" transform="translate(4.5 4.5)"/><path class="cls-6" d="M36.19,26.5l4.66-13h2.77l4.66,13H45.66l-1.06-3H39.92l-1.09,3Zm4.31-5.31H44L42.25,16Z" transform="translate(4.5 4.5)"/><path class="cls-6" d="M60.33,26.5H57.6l-2.12-5H52.85v5H50.23v-13h5.49a5.71,5.71,0,0,1,2.55.49,3.3,3.3,0,0,1,1.46,1.37,4.27,4.27,0,0,1,.46,2,4.1,4.1,0,0,1-.32,1.74A3.49,3.49,0,0,1,59,20.28a5,5,0,0,1-1.13.77Zm-5.08-7a2.37,2.37,0,0,0,1.67-.57,1.87,1.87,0,0,0,.62-1.45,1.81,1.81,0,0,0-.6-1.43,2.21,2.21,0,0,0-1.5-.52H52.85v4Z" transform="translate(4.5 4.5)"/></g><path class="cls-1" d="M33.54,66.5V56.75H31.22V55.27a6.34,6.34,0,0,0,1.8-.21,2.12,2.12,0,0,0,1-.62,1.68,1.68,0,0,0,.41-.95H36.2v13Z" transform="translate(4.5 4.5)"/><path class="cls-1" d="M44.4,53.31a5.59,5.59,0,0,1,2.26.44A4.27,4.27,0,0,1,48.35,55a3.6,3.6,0,0,1,.72,2H46.66a2.3,2.3,0,0,0-.79-1.25,2.52,2.52,0,0,0-3,.11A3,3,0,0,0,42,57.4a6.08,6.08,0,0,0-.15,2.22,2.94,2.94,0,0,1,.76-.73,3.85,3.85,0,0,1,1-.46,4.2,4.2,0,0,1,1.18-.16,5.1,5.1,0,0,1,2.31.49,3.73,3.73,0,0,1,1.55,1.39,3.92,3.92,0,0,1,.55,2.1,4.2,4.2,0,0,1-.62,2.28,4.46,4.46,0,0,1-1.74,1.59,5.63,5.63,0,0,1-2.58.58,5.11,5.11,0,0,1-2.87-.8,5.22,5.22,0,0,1-1.85-2.25,8.32,8.32,0,0,1-.64-3.4,9.6,9.6,0,0,1,.65-3.7,5.31,5.31,0,0,1,1.88-2.4A5,5,0,0,1,44.4,53.31Zm-.19,6.92a2.49,2.49,0,0,0-1.07.24,2.66,2.66,0,0,0-.85.63,1.21,1.21,0,0,0-.33.78,3.59,3.59,0,0,0,.28,1.5,2.16,2.16,0,0,0,.79,1,2,2,0,0,0,1.17.34,2.3,2.3,0,0,0,1.14-.29,2.27,2.27,0,0,0,.82-.81,2.38,2.38,0,0,0,.3-1.2,2.32,2.32,0,0,0-.29-1.2,1.8,1.8,0,0,0-.81-.71A2.66,2.66,0,0,0,44.21,60.23Z" transform="translate(4.5 4.5)"/></g></g></svg>