<svg xmlns="http://www.w3.org/2000/svg" xmlns:xlink="http://www.w3.org/1999/xlink" viewBox="0 0 88 83.5"><defs><style>.cls-1,.cls-6{fill:none;}.cls-2{clip-path:url(#clip-path);}.cls-3{isolation:isolate;}.cls-4{clip-path:url(#clip-path-2);}.cls-5{fill:#005ea2;}.cls-6{stroke:#005ea2;stroke-miterlimit:10;}.cls-7{fill:#fff;}</style><clipPath id="clip-path" transform="translate(4.5 4.5)"><rect class="cls-1" x="0.5" y="0.5" width="78" height="39"/></clipPath><clipPath id="clip-path-2" transform="translate(4.5 4.5)"><rect class="cls-1" x="0.5" y="0.5" width="79" height="39"/></clipPath></defs><g id="Layer_2" data-name="Layer 2"><g id="Layer_1-2" data-name="Layer 1"><g class="cls-2"><g class="cls-3"><g class="cls-4"><g class="cls-2"><rect class="cls-5" width="88" height="49"/></g></g></g></g><rect class="cls-6" x="5" y="5" width="78" height="78"/><g class="cls-3"><path class="cls-7" d="M20.64,26.5v-13h3.81l3,9.27,3-9.27h3.81v13H31.59V16.55l-3.13,10H26.4l-3.12-9.9v9.9Z" transform="translate(4.5 4.5)"/><path class="cls-7" d="M36.19,26.5l4.66-13h2.77l4.66,13H45.66l-1.06-3H39.92l-1.09,3Zm4.31-5.31H44L42.25,16Z" transform="translate(4.5 4.5)"/><path class="cls-7" d="M60.33,26.5H57.6l-2.12-5H52.85v5H50.23v-13h5.49a5.71,5.71,0,0,1,2.55.49,3.3,3.3,0,0,1,1.46,1.37,4.27,4.27,0,0,1,.46,2,4.1,4.1,0,0,1-.32,1.74A3.49,3.49,0,0,1,59,20.28a5,5,0,0,1-1.13.77Zm-5.08-7a2.37,2.37,0,0,0,1.67-.57,1.87,1.87,0,0,0,.62-1.45,1.81,1.81,0,0,0-.6-1.43,2.21,2.21,0,0,0-1.5-.52H52.85v4Z" transform="translate(4.5 4.5)"/></g><path class="cls-5" d="M33.41,66.5V56.75H31.09V55.27a6.34,6.34,0,0,0,1.8-.21,2.12,2.12,0,0,0,1-.62,1.75,1.75,0,0,0,.41-.95h1.74v13Z" transform="translate(4.5 4.5)"/><path class="cls-5" d="M40.17,53.49h8.36l-.1,2.16H42.25L42,58.78a6.35,6.35,0,0,1,1.38-.59A5.33,5.33,0,0,1,44.8,58a5.5,5.5,0,0,1,2.34.49,3.86,3.86,0,0,1,1.63,1.44,4.22,4.22,0,0,1,.61,2.3,4.38,4.38,0,0,1-.63,2.38A4,4,0,0,1,47,66.16a6.18,6.18,0,0,1-2.69.54,6.83,6.83,0,0,1-2.38-.4A6,6,0,0,1,40,65.22a4.81,4.81,0,0,1-1.21-1.58l2-1.22a7.12,7.12,0,0,0,.79,1.11,3.61,3.61,0,0,0,1,.77,3.06,3.06,0,0,0,1.36.28A2.72,2.72,0,0,0,45.91,64a2,2,0,0,0,.71-1.62,2.1,2.1,0,0,0-.32-1.13,2.16,2.16,0,0,0-.88-.78,2.68,2.68,0,0,0-1.3-.29,4.56,4.56,0,0,0-.75.06,2.61,2.61,0,0,0-.72.26,5.39,5.39,0,0,0-.81.52.49.49,0,0,1-.17.06.44.44,0,0,1-.19-.07l-1.91-.88Z" transform="translate(4.5 4.5)"/></g></g></svg>