<svg xmlns="http://www.w3.org/2000/svg" xmlns:xlink="http://www.w3.org/1999/xlink" viewBox="0 0 88 83.5"><defs><style>.cls-1{fill:#c9c9c9;}.cls-2{clip-path:url(#clip-path);}.cls-3{isolation:isolate;}.cls-4{clip-path:url(#clip-path-2);}.cls-5{fill:none;stroke:#c9c9c9;stroke-miterlimit:10;}.cls-6{fill:#fff;}</style><clipPath id="clip-path" transform="translate(4.5 4.5)"><rect class="cls-1" x="0.5" y="0.5" width="78" height="39"/></clipPath><clipPath id="clip-path-2" transform="translate(4.5 4.5)"><rect class="cls-1" x="0.5" y="0.5" width="79" height="39"/></clipPath></defs><g id="Layer_2" data-name="Layer 2"><g id="Layer_1-2" data-name="Layer 1"><rect class="cls-1" x="5" y="5" width="78" height="39"/><g class="cls-2"><g class="cls-3"><rect class="cls-1" x="5" y="5" width="79" height="39"/><g class="cls-4"><rect class="cls-1" x="5" y="5" width="78" height="39"/><g class="cls-2"><rect class="cls-1" width="88" height="49"/></g></g></g></g><rect class="cls-5" x="5" y="5" width="78" height="78"/><g class="cls-3"><path class="cls-6" d="M20.64,26.5v-13h3.81l3,9.28,3-9.28h3.81v13H31.59V16.56L28.46,26.5H26.4l-3.12-9.9v9.9Z" transform="translate(4.5 4.5)"/><path class="cls-6" d="M36.19,26.5l4.66-13h2.77l4.66,13H45.66l-1.06-3H39.92l-1.09,3Zm4.31-5.31H44L42.25,16Z" transform="translate(4.5 4.5)"/><path class="cls-6" d="M60.33,26.5H57.6l-2.12-5H52.85v5H50.23v-13h5.49a5.71,5.71,0,0,1,2.55.49,3.22,3.22,0,0,1,1.45,1.37,4.16,4.16,0,0,1,.47,2,4.1,4.1,0,0,1-.32,1.74A3.49,3.49,0,0,1,59,20.28a5.26,5.26,0,0,1-1.13.77Zm-5.08-7a2.41,2.41,0,0,0,1.67-.56,1.91,1.91,0,0,0,.62-1.46,1.77,1.77,0,0,0-.6-1.42,2.16,2.16,0,0,0-1.5-.53H52.85v4Z" transform="translate(4.5 4.5)"/></g><path class="cls-1" d="M29.83,66.5v-2a3.73,3.73,0,0,1,.37-1.72,4.25,4.25,0,0,1,1-1.26,8.38,8.38,0,0,1,1.33-.94c.49-.27,1-.52,1.46-.76s.93-.48,1.33-.73a3.66,3.66,0,0,0,1-.81,1.59,1.59,0,0,0,.37-1.06A1.62,1.62,0,0,0,36.09,56a2.1,2.1,0,0,0-1.48-.5,2.52,2.52,0,0,0-1.67.57,2.6,2.6,0,0,0-.85,1.71H29.58a4.59,4.59,0,0,1,.58-2.25,4.11,4.11,0,0,1,1.69-1.61,6.09,6.09,0,0,1,2.83-.59,5.85,5.85,0,0,1,2.51.49,3.85,3.85,0,0,1,1.64,1.38A4.07,4.07,0,0,1,39,58.93a3.94,3.94,0,0,1-.95,1.22,7.5,7.5,0,0,1-1.31.88c-.47.26-.94.49-1.41.7s-.91.44-1.3.66a3.62,3.62,0,0,0-1,.76,1.51,1.51,0,0,0-.36,1v.12h6.64V66.5Z" transform="translate(4.5 4.5)"/><path class="cls-1" d="M41.26,66.5v-2a3.73,3.73,0,0,1,.37-1.72,4.25,4.25,0,0,1,1-1.26,8.38,8.38,0,0,1,1.33-.94c.49-.27,1-.52,1.46-.76s.93-.48,1.33-.73a3.66,3.66,0,0,0,1-.81,1.59,1.59,0,0,0,.37-1.06A1.62,1.62,0,0,0,47.52,56a2.1,2.1,0,0,0-1.48-.5,2.52,2.52,0,0,0-1.67.57,2.6,2.6,0,0,0-.85,1.71H41a4.59,4.59,0,0,1,.58-2.25,4.11,4.11,0,0,1,1.69-1.61,6.09,6.09,0,0,1,2.83-.59,5.85,5.85,0,0,1,2.51.49,3.85,3.85,0,0,1,1.64,1.38,4.07,4.07,0,0,1,.21,3.75,3.94,3.94,0,0,1-.95,1.22,7.5,7.5,0,0,1-1.31.88c-.47.26-.94.49-1.41.7s-.91.44-1.3.66a3.62,3.62,0,0,0-1,.76,1.51,1.51,0,0,0-.36,1v.12h6.63V66.5Z" transform="translate(4.5 4.5)"/></g></g></svg>