<svg xmlns="http://www.w3.org/2000/svg" xmlns:xlink="http://www.w3.org/1999/xlink" viewBox="0 0 88 83.5"><defs><style>.cls-1{fill:#c9c9c9;}.cls-2{clip-path:url(#clip-path);}.cls-3{isolation:isolate;}.cls-4{clip-path:url(#clip-path-2);}.cls-5{fill:none;stroke:#c9c9c9;stroke-miterlimit:10;}.cls-6{fill:#fff;}</style><clipPath id="clip-path" transform="translate(4.5 4.5)"><rect class="cls-1" x="0.5" y="0.5" width="78" height="39"/></clipPath><clipPath id="clip-path-2" transform="translate(4.5 4.5)"><rect class="cls-1" x="0.5" y="0.5" width="79" height="39"/></clipPath></defs><g id="Layer_2" data-name="Layer 2"><g id="Layer_1-2" data-name="Layer 1"><rect class="cls-1" x="5" y="5" width="78" height="39"/><g class="cls-2"><g class="cls-3"><rect class="cls-1" x="5" y="5" width="79" height="39"/><g class="cls-4"><rect class="cls-1" x="5" y="5" width="78" height="39"/><g class="cls-2"><rect class="cls-1" width="88" height="49"/></g></g></g></g><rect class="cls-5" x="5" y="5" width="78" height="78"/><g class="cls-3"><path class="cls-6" d="M20.64,26.5v-13h3.81l3,9.28,3-9.28h3.81v13H31.59V16.56L28.46,26.5H26.4l-3.12-9.9v9.9Z" transform="translate(4.5 4.5)"/><path class="cls-6" d="M36.19,26.5l4.66-13h2.77l4.66,13H45.66l-1.06-3H39.92l-1.09,3Zm4.31-5.31H44L42.25,16Z" transform="translate(4.5 4.5)"/><path class="cls-6" d="M60.33,26.5H57.6l-2.12-5H52.85v5H50.23v-13h5.49a5.71,5.71,0,0,1,2.55.49,3.3,3.3,0,0,1,1.46,1.37,4.27,4.27,0,0,1,.46,2,4.1,4.1,0,0,1-.32,1.74A3.49,3.49,0,0,1,59,20.28a5,5,0,0,1-1.13.77Zm-5.08-7a2.37,2.37,0,0,0,1.67-.57,1.87,1.87,0,0,0,.62-1.45,1.77,1.77,0,0,0-.6-1.42,2.16,2.16,0,0,0-1.5-.53H52.85v4Z" transform="translate(4.5 4.5)"/></g><path class="cls-1" d="M29.35,57.49A3.89,3.89,0,0,1,30,55.16a4,4,0,0,1,1.78-1.39,6.51,6.51,0,0,1,2.5-.46,8.28,8.28,0,0,1,2.6.37,4,4,0,0,1,1.8,1.16,3,3,0,0,1,.65,2,2.7,2.7,0,0,1-.55,1.69A3.79,3.79,0,0,1,37,59.66a4.57,4.57,0,0,1,1.33.6,3.14,3.14,0,0,1,1,1,2.89,2.89,0,0,1,.37,1.51,3.27,3.27,0,0,1-.42,1.68,3.81,3.81,0,0,1-1.17,1.23,5.76,5.76,0,0,1-1.73.74,8.83,8.83,0,0,1-2.1.24,6.51,6.51,0,0,1-2.67-.52,3.82,3.82,0,0,1-1.69-1.45,4.29,4.29,0,0,1-.61-2.25H31.8a2.42,2.42,0,0,0,.87,1.6,2.62,2.62,0,0,0,1.6.49,3.65,3.65,0,0,0,1.39-.23,2,2,0,0,0,.89-.65,1.55,1.55,0,0,0,.31-1,1.52,1.52,0,0,0-.32-1,2.2,2.2,0,0,0-.89-.64,4,4,0,0,0-1.29-.25l-1.24,0V58.75l1.11-.06a3.48,3.48,0,0,0,1.23-.26,2.08,2.08,0,0,0,.81-.63,1.4,1.4,0,0,0,.29-.89,1.26,1.26,0,0,0-.29-.82,2,2,0,0,0-.82-.55,3.43,3.43,0,0,0-1.2-.2,3,3,0,0,0-1.14.21,1.91,1.91,0,0,0-.86.68,2.47,2.47,0,0,0-.39,1.26Z" transform="translate(4.5 4.5)"/><path class="cls-1" d="M46.21,53.31A4.35,4.35,0,0,1,49.87,55a7.94,7.94,0,0,1,1.35,5A8,8,0,0,1,49.89,65a4.8,4.8,0,0,1-7.37,0,8,8,0,0,1-1.33-5,9.66,9.66,0,0,1,.61-3.66,5,5,0,0,1,1.74-2.29A4.64,4.64,0,0,1,46.21,53.31Zm0,11.24a1.79,1.79,0,0,0,1.7-1A8.11,8.11,0,0,0,48.45,60a8.37,8.37,0,0,0-.55-3.57,1.79,1.79,0,0,0-1.7-1.08,1.82,1.82,0,0,0-1.71,1.09A8.16,8.16,0,0,0,43.93,60a7.88,7.88,0,0,0,.55,3.47A1.84,1.84,0,0,0,46.21,64.55Z" transform="translate(4.5 4.5)"/></g></g></svg>