<svg xmlns="http://www.w3.org/2000/svg" xmlns:xlink="http://www.w3.org/1999/xlink" viewBox="0 0 88 83.5"><defs><style>.cls-1{fill:#c9c9c9;}.cls-2{clip-path:url(#clip-path);}.cls-3{isolation:isolate;}.cls-4{clip-path:url(#clip-path-2);}.cls-5{fill:none;stroke:#c9c9c9;stroke-miterlimit:10;}.cls-6{fill:#fff;}</style><clipPath id="clip-path" transform="translate(4.5 4.5)"><rect class="cls-1" x="0.5" y="0.5" width="78" height="39"/></clipPath><clipPath id="clip-path-2" transform="translate(4.5 4.5)"><rect class="cls-1" x="0.5" y="0.5" width="79" height="39"/></clipPath></defs><g id="Layer_2" data-name="Layer 2"><g id="Layer_1-2" data-name="Layer 1"><rect class="cls-1" x="5" y="5" width="78" height="39"/><g class="cls-2"><g class="cls-3"><rect class="cls-1" x="5" y="5" width="79" height="39"/><g class="cls-4"><rect class="cls-1" x="5" y="5" width="78" height="39"/><g class="cls-2"><rect class="cls-1" width="88" height="49"/></g></g></g></g><rect class="cls-5" x="5" y="5" width="78" height="78"/><g class="cls-3"><path class="cls-6" d="M20.64,26.5v-13h3.81l3,9.28,3-9.28h3.81v13H31.59V16.56L28.46,26.5H26.4l-3.12-9.9v9.9Z" transform="translate(4.5 4.5)"/><path class="cls-6" d="M36.19,26.5l4.66-13h2.77l4.66,13H45.66l-1.06-3H39.91l-1.08,3Zm4.31-5.31H44L42.25,16Z" transform="translate(4.5 4.5)"/><path class="cls-6" d="M60.33,26.5H57.6l-2.12-5H52.85v5H50.23v-13h5.49a5.71,5.71,0,0,1,2.55.49,3.22,3.22,0,0,1,1.45,1.37,4.16,4.16,0,0,1,.47,2,4.1,4.1,0,0,1-.32,1.74A3.49,3.49,0,0,1,59,20.28a5.26,5.26,0,0,1-1.13.77Zm-5.08-7a2.37,2.37,0,0,0,1.67-.57,1.87,1.87,0,0,0,.62-1.45,1.77,1.77,0,0,0-.6-1.42,2.16,2.16,0,0,0-1.5-.53H52.85v4Z" transform="translate(4.5 4.5)"/></g><path class="cls-1" d="M31.28,57.49a3.77,3.77,0,0,1,2.44-3.72,6.52,6.52,0,0,1,2.51-.46,8.26,8.26,0,0,1,2.59.37,4,4,0,0,1,1.8,1.16,2.9,2.9,0,0,1,.65,2,2.7,2.7,0,0,1-.55,1.69,3.79,3.79,0,0,1-1.82,1.17,4.57,4.57,0,0,1,1.33.6,3.14,3.14,0,0,1,1,1,2.89,2.89,0,0,1,.37,1.51,3.27,3.27,0,0,1-.42,1.68A3.71,3.71,0,0,1,40,65.72a5.76,5.76,0,0,1-1.73.74,8.77,8.77,0,0,1-2.1.24,6.51,6.51,0,0,1-2.67-.52,3.82,3.82,0,0,1-1.69-1.45,4.39,4.39,0,0,1-.61-2.25h2.53a2.42,2.42,0,0,0,.87,1.6,2.62,2.62,0,0,0,1.6.49,3.65,3.65,0,0,0,1.39-.23,2,2,0,0,0,.89-.65,1.55,1.55,0,0,0,.31-1,1.52,1.52,0,0,0-.32-1,2.13,2.13,0,0,0-.89-.64,3.84,3.84,0,0,0-1.29-.25l-1.24,0V58.75l1.11-.06a3.48,3.48,0,0,0,1.23-.26,2,2,0,0,0,.81-.63,1.4,1.4,0,0,0,.29-.89,1.21,1.21,0,0,0-.29-.82,1.89,1.89,0,0,0-.82-.55,3.43,3.43,0,0,0-1.2-.2,3,3,0,0,0-1.14.21,2,2,0,0,0-.86.68,2.38,2.38,0,0,0-.38,1.26Z" transform="translate(4.5 4.5)"/><path class="cls-1" d="M45.47,66.5V56.75H43.15V55.27a6.34,6.34,0,0,0,1.8-.21,2.12,2.12,0,0,0,1-.62,1.75,1.75,0,0,0,.41-.95h1.74v13Z" transform="translate(4.5 4.5)"/></g></g></svg>