<svg xmlns="http://www.w3.org/2000/svg" xmlns:xlink="http://www.w3.org/1999/xlink" viewBox="0 0 88 83.5"><defs><style>.cls-1,.cls-6{fill:none;}.cls-2{clip-path:url(#clip-path);}.cls-3{isolation:isolate;}.cls-4{clip-path:url(#clip-path-2);}.cls-5{fill:#005ea2;}.cls-6{stroke:#005ea2;stroke-miterlimit:10;}.cls-7{fill:#fff;}</style><clipPath id="clip-path" transform="translate(4.5 4.5)"><rect class="cls-1" x="0.5" y="0.5" width="78" height="39"/></clipPath><clipPath id="clip-path-2" transform="translate(4.5 4.5)"><rect class="cls-1" x="0.5" y="0.5" width="79" height="39"/></clipPath></defs><g id="Layer_2" data-name="Layer 2"><g id="Layer_1-2" data-name="Layer 1"><g class="cls-2"><g class="cls-3"><g class="cls-4"><g class="cls-2"><rect class="cls-5" width="88" height="49"/></g></g></g></g><rect class="cls-6" x="5" y="5" width="78" height="78"/><g class="cls-3"><path class="cls-7" d="M20.64,26.5v-13h3.81l3,9.28,3-9.28h3.81v13H31.59V16.56L28.46,26.5H26.4l-3.12-9.9v9.9Z" transform="translate(4.5 4.5)"/><path class="cls-7" d="M36.19,26.5l4.66-13h2.77l4.66,13H45.66l-1.06-3H39.92l-1.09,3Zm4.31-5.31H44L42.25,16Z" transform="translate(4.5 4.5)"/><path class="cls-7" d="M60.33,26.5H57.6l-2.12-5H52.85v5H50.23v-13h5.49a5.71,5.71,0,0,1,2.55.49,3.3,3.3,0,0,1,1.46,1.37,4.27,4.27,0,0,1,.46,2,4.1,4.1,0,0,1-.32,1.74A3.49,3.49,0,0,1,59,20.28a5,5,0,0,1-1.13.77Zm-5.08-7a2.41,2.41,0,0,0,1.67-.56,1.91,1.91,0,0,0,.62-1.46,1.77,1.77,0,0,0-.6-1.42,2.16,2.16,0,0,0-1.5-.53H52.85v4Z" transform="translate(4.5 4.5)"/></g><path class="cls-5" d="M39.88,66.7a5.56,5.56,0,0,1-2.27-.47,4.44,4.44,0,0,1-1.72-1.32,3.42,3.42,0,0,1-.74-2h2.5a2.21,2.21,0,0,0,.72,1.23,2.11,2.11,0,0,0,1.4.47,3,3,0,0,0,1.64-.44,2.66,2.66,0,0,0,1.07-1.41,6.16,6.16,0,0,0,.24-2.52,2.63,2.63,0,0,1-.69.84,3.56,3.56,0,0,1-1,.55,4.59,4.59,0,0,1-1.33.19,5.3,5.3,0,0,1-2.34-.5,3.87,3.87,0,0,1-1.6-1.42,4,4,0,0,1-.58-2.19,4.19,4.19,0,0,1,2.32-3.85A5.63,5.63,0,0,1,40,53.31a4.85,4.85,0,0,1,4.71,3,8.4,8.4,0,0,1,.64,3.39,10,10,0,0,1-.66,3.89,4.86,4.86,0,0,1-1.9,2.32A5.46,5.46,0,0,1,39.88,66.7Zm.23-7a2.37,2.37,0,0,0,1.07-.25,2.5,2.5,0,0,0,.85-.62,1.17,1.17,0,0,0,.33-.78,3.41,3.41,0,0,0-.27-1.5,2.09,2.09,0,0,0-2-1.3,2.12,2.12,0,0,0-1.1.29,2,2,0,0,0-.77.81A2.6,2.6,0,0,0,38,57.6a2.07,2.07,0,0,0,.6,1.58A2.17,2.17,0,0,0,40.11,59.74Z" transform="translate(4.5 4.5)"/></g></g></svg>