<svg xmlns="http://www.w3.org/2000/svg" xmlns:xlink="http://www.w3.org/1999/xlink" viewBox="0 0 88 83.5"><defs><style>.cls-1{fill:#c9c9c9;}.cls-2{clip-path:url(#clip-path);}.cls-3{isolation:isolate;}.cls-4{clip-path:url(#clip-path-2);}.cls-5{fill:none;stroke:#c9c9c9;stroke-miterlimit:10;}.cls-6{fill:#fff;}</style><clipPath id="clip-path" transform="translate(4.5 4.5)"><rect class="cls-1" x="0.5" y="0.5" width="78" height="39"/></clipPath><clipPath id="clip-path-2" transform="translate(4.5 4.5)"><rect class="cls-1" x="0.5" y="0.5" width="79" height="39"/></clipPath></defs><g id="Layer_2" data-name="Layer 2"><g id="Layer_1-2" data-name="Layer 1"><rect class="cls-1" x="5" y="5" width="78" height="39"/><g class="cls-2"><g class="cls-3"><rect class="cls-1" x="5" y="5" width="79" height="39"/><g class="cls-4"><rect class="cls-1" x="5" y="5" width="78" height="39"/><g class="cls-2"><rect class="cls-1" width="88" height="49"/></g></g></g></g><rect class="cls-5" x="5" y="5" width="78" height="78"/><g class="cls-3"><path class="cls-6" d="M20.64,26.5v-13h3.81l3,9.27,3-9.27h3.81v13H31.59V16.55l-3.13,10H26.4l-3.12-9.9v9.9Z" transform="translate(4.5 4.5)"/><path class="cls-6" d="M36.19,26.5l4.66-13h2.77l4.66,13H45.66l-1.06-3H39.91l-1.08,3Zm4.31-5.31H44L42.25,16Z" transform="translate(4.5 4.5)"/><path class="cls-6" d="M59.06,13.49,54.53,21V26.5H51.9V21l-4.51-7.53h2.84l3,5.27,3-5.27Z" transform="translate(4.5 4.5)"/></g><path class="cls-1" d="M33.68,66.5V56.75H31.36V55.27a6.29,6.29,0,0,0,1.8-.21,2.16,2.16,0,0,0,1-.62,1.74,1.74,0,0,0,.4-.95h1.75v13Z" transform="translate(4.5 4.5)"/><path class="cls-1" d="M44.11,53.31A4.38,4.38,0,0,1,47.77,55a8,8,0,0,1,1.34,5A8,8,0,0,1,47.79,65a4.81,4.81,0,0,1-7.38,0,8,8,0,0,1-1.33-5,9.65,9.65,0,0,1,.62-3.66,4.88,4.88,0,0,1,1.73-2.29A4.65,4.65,0,0,1,44.11,53.31Zm0,11.24a1.8,1.8,0,0,0,1.7-1A8.11,8.11,0,0,0,46.35,60a8.53,8.53,0,0,0-.55-3.57,1.81,1.81,0,0,0-1.7-1.08,1.84,1.84,0,0,0-1.72,1.09A8.32,8.32,0,0,0,41.82,60a7.71,7.71,0,0,0,.56,3.47A1.84,1.84,0,0,0,44.11,64.55Z" transform="translate(4.5 4.5)"/></g></g></svg>