<svg xmlns="http://www.w3.org/2000/svg" xmlns:xlink="http://www.w3.org/1999/xlink" viewBox="0 0 88 83.5"><defs><style>.cls-1{fill:#c9c9c9;}.cls-2{clip-path:url(#clip-path);}.cls-3{isolation:isolate;}.cls-4{clip-path:url(#clip-path-2);}.cls-5{fill:none;stroke:#c9c9c9;stroke-miterlimit:10;}.cls-6{fill:#fff;}</style><clipPath id="clip-path" transform="translate(4.5 4.5)"><rect class="cls-1" x="0.5" y="0.5" width="78" height="39"/></clipPath><clipPath id="clip-path-2" transform="translate(4.5 4.5)"><rect class="cls-1" x="0.5" y="0.5" width="79" height="39"/></clipPath></defs><g id="Layer_2" data-name="Layer 2"><g id="Layer_1-2" data-name="Layer 1"><rect class="cls-1" x="5" y="5" width="78" height="39"/><g class="cls-2"><g class="cls-3"><rect class="cls-1" x="5" y="5" width="79" height="39"/><g class="cls-4"><rect class="cls-1" x="5" y="5" width="78" height="39"/><g class="cls-2"><rect class="cls-1" width="88" height="49"/></g></g></g></g><rect class="cls-5" x="5" y="5" width="78" height="78"/><g class="cls-3"><path class="cls-6" d="M20.64,26.5v-13h3.81l3,9.27,3-9.27h3.81v13H31.59V16.55l-3.13,10H26.4l-3.12-9.9v9.9Z" transform="translate(4.5 4.5)"/><path class="cls-6" d="M36.19,26.5l4.66-13h2.77l4.66,13H45.66l-1.06-3H39.92l-1.09,3Zm4.31-5.31H44L42.25,16Z" transform="translate(4.5 4.5)"/><path class="cls-6" d="M59.06,13.49,54.53,21V26.5H51.9V21l-4.51-7.53h2.84l3,5.27,3-5.27Z" transform="translate(4.5 4.5)"/></g><path class="cls-1" d="M33.55,66.5V56.75H31.23V55.27a6.29,6.29,0,0,0,1.8-.21,2.16,2.16,0,0,0,1-.62,1.74,1.74,0,0,0,.4-.95h1.75v13Z" transform="translate(4.5 4.5)"/><path class="cls-1" d="M43.73,66.7a5.59,5.59,0,0,1-2.27-.47,4.44,4.44,0,0,1-1.72-1.32,3.49,3.49,0,0,1-.74-2h2.5a2.21,2.21,0,0,0,.72,1.23,2.11,2.11,0,0,0,1.4.47,3.08,3.08,0,0,0,1.65-.44,2.7,2.7,0,0,0,1.06-1.41,6.14,6.14,0,0,0,.25-2.52,2.67,2.67,0,0,1-.7.84,3.56,3.56,0,0,1-1,.55,4.57,4.57,0,0,1-1.32.19,5.31,5.31,0,0,1-2.35-.5,3.87,3.87,0,0,1-1.6-1.42A4,4,0,0,1,39,57.72a4.19,4.19,0,0,1,2.32-3.85,5.63,5.63,0,0,1,2.57-.56,4.85,4.85,0,0,1,4.71,3,8.24,8.24,0,0,1,.64,3.39,10,10,0,0,1-.66,3.89,4.86,4.86,0,0,1-1.9,2.32A5.46,5.46,0,0,1,43.73,66.7Zm.24-7A2.36,2.36,0,0,0,45,59.49a2.5,2.5,0,0,0,.85-.62,1.14,1.14,0,0,0,.34-.78,3.56,3.56,0,0,0-.28-1.5,2.16,2.16,0,0,0-.79-1,2.31,2.31,0,0,0-2.29-.05,2.14,2.14,0,0,0-.77.81,2.6,2.6,0,0,0-.27,1.21,2.06,2.06,0,0,0,.59,1.58A2.18,2.18,0,0,0,44,59.74Z" transform="translate(4.5 4.5)"/></g></g></svg>