<svg xmlns="http://www.w3.org/2000/svg" xmlns:xlink="http://www.w3.org/1999/xlink" viewBox="0 0 88 83.5"><defs><style>.cls-1{fill:#c9c9c9;}.cls-2{clip-path:url(#clip-path);}.cls-3{isolation:isolate;}.cls-4{clip-path:url(#clip-path-2);}.cls-5{fill:none;stroke:#c9c9c9;stroke-miterlimit:10;}.cls-6{fill:#fff;}</style><clipPath id="clip-path" transform="translate(4.5 4.5)"><rect class="cls-1" x="0.5" y="0.5" width="78" height="39"/></clipPath><clipPath id="clip-path-2" transform="translate(4.5 4.5)"><rect class="cls-1" x="0.5" y="0.5" width="79" height="39"/></clipPath></defs><g id="Layer_2" data-name="Layer 2"><g id="Layer_1-2" data-name="Layer 1"><rect class="cls-1" x="5" y="5" width="78" height="39"/><g class="cls-2"><g class="cls-3"><rect class="cls-1" x="5" y="5" width="79" height="39"/><g class="cls-4"><rect class="cls-1" x="5" y="5" width="78" height="39"/><g class="cls-2"><rect class="cls-1" width="88" height="49"/></g></g></g></g><rect class="cls-5" x="5" y="5" width="78" height="78"/><g class="cls-3"><path class="cls-6" d="M26.05,26.68a6.05,6.05,0,0,1-3.19-.81,5.32,5.32,0,0,1-2.08-2.29A8,8,0,0,1,20,20a7.91,7.91,0,0,1,.75-3.58,5.42,5.42,0,0,1,2.09-2.32,6.05,6.05,0,0,1,3.17-.81,6,6,0,0,1,3.15.81,5.41,5.41,0,0,1,2.07,2.31A8.1,8.1,0,0,1,32,20a8.09,8.09,0,0,1-.73,3.55,5.25,5.25,0,0,1-2.06,2.3A6,6,0,0,1,26.05,26.68Zm0-2.16a3,3,0,0,0,1.65-.45,3,3,0,0,0,1.07-1.44,7.15,7.15,0,0,0,.38-2.57,7.45,7.45,0,0,0-.38-2.64,3,3,0,0,0-1.08-1.48,2.8,2.8,0,0,0-1.64-.47,2.85,2.85,0,0,0-1.65.47,3,3,0,0,0-1.09,1.48,7.5,7.5,0,0,0-.39,2.64,7.05,7.05,0,0,0,.39,2.57,2.73,2.73,0,0,0,2.74,1.89Z" transform="translate(4.5 4.5)"/><path class="cls-6" d="M39.5,13.31a5.59,5.59,0,0,1,2.62.59A5,5,0,0,1,44,15.5a4.77,4.77,0,0,1,.83,2.3H42.05a3.34,3.34,0,0,0-.46-1.2,2.31,2.31,0,0,0-.87-.83,2.63,2.63,0,0,0-1.3-.3,2.67,2.67,0,0,0-1.56.44,2.72,2.72,0,0,0-1,1.42,7.7,7.7,0,0,0-.35,2.59,6.17,6.17,0,0,0,.78,3.52,2.48,2.48,0,0,0,2.14,1.08,2.36,2.36,0,0,0,1.3-.35,2.62,2.62,0,0,0,.87-.91A3.89,3.89,0,0,0,42.05,22H44.8a6.58,6.58,0,0,1-.45,1.77,4.69,4.69,0,0,1-.94,1.5,4.25,4.25,0,0,1-1.58,1,6.42,6.42,0,0,1-2.33.38,5.65,5.65,0,0,1-3.14-.85,5.51,5.51,0,0,1-2-2.37,8.47,8.47,0,0,1-.71-3.58,8,8,0,0,1,.71-3.52,5.19,5.19,0,0,1,2-2.26A6,6,0,0,1,39.5,13.31Z" transform="translate(4.5 4.5)"/><path class="cls-6" d="M45.81,15.83V13.49H56.22v2.34H52.38V26.5H49.74V15.83Z" transform="translate(4.5 4.5)"/></g><path class="cls-1" d="M39.88,66.7a5.56,5.56,0,0,1-2.27-.47,4.44,4.44,0,0,1-1.72-1.32,3.42,3.42,0,0,1-.74-2h2.5a2.21,2.21,0,0,0,.72,1.23,2.11,2.11,0,0,0,1.4.47,3,3,0,0,0,1.64-.44,2.66,2.66,0,0,0,1.07-1.41,6.16,6.16,0,0,0,.24-2.52,2.63,2.63,0,0,1-.69.84,3.56,3.56,0,0,1-1,.55,4.59,4.59,0,0,1-1.33.19,5.3,5.3,0,0,1-2.34-.5,3.87,3.87,0,0,1-1.6-1.42,4,4,0,0,1-.58-2.19,4.19,4.19,0,0,1,2.32-3.85A5.63,5.63,0,0,1,40,53.31a4.85,4.85,0,0,1,4.71,3,8.4,8.4,0,0,1,.64,3.39,10,10,0,0,1-.66,3.89,4.86,4.86,0,0,1-1.9,2.32A5.46,5.46,0,0,1,39.88,66.7Zm.23-7a2.37,2.37,0,0,0,1.07-.25,2.5,2.5,0,0,0,.85-.62,1.17,1.17,0,0,0,.33-.78,3.41,3.41,0,0,0-.27-1.5,2.06,2.06,0,0,0-2-1.29,2.12,2.12,0,0,0-1.1.28,2.14,2.14,0,0,0-.77.81A2.6,2.6,0,0,0,38,57.6a2.07,2.07,0,0,0,.6,1.58A2.17,2.17,0,0,0,40.11,59.74Z" transform="translate(4.5 4.5)"/></g></g></svg>